<svg xmlns="http://www.w3.org/2000/svg" xmlns:xlink="http://www.w3.org/1999/xlink" contentStyleType="text/css" data-diagram-type="CLASS" height="1198px" preserveAspectRatio="none" style="width:956px;height:1198px;background:#1B1B1B;" version="1.1" viewBox="0 0 956 1198" width="956px" zoomAndPan="magnify"><defs/><g><rect fill="#1B1B1B" height="1198" style="stroke:none;stroke-width:1;" width="956" x="0" y="0"/><!--class ICommand--><g class="entity" data-entity="ICommand" data-source-line="1" data-uid="ent0002" id="entity_ICommand"><rect fill="#313139" height="80.5938" rx="2.5" ry="2.5" style="stroke:#E7E7E7;stroke-width:0.5;" width="213.0039" x="7" y="995.17"/><ellipse cx="71.21" cy="1011.17" fill="#352866" rx="11" ry="11" style="stroke:#E7E7E7;stroke-width:1;"/><path d="M67.1318,1006.9356 L67.1318,1004.7794 L74.5225,1004.7794 L74.5225,1006.9356 L72.0537,1006.9356 L72.0537,1015.0138 L74.5225,1015.0138 L74.5225,1017.17 L67.1318,1017.17 L67.1318,1015.0138 L69.6006,1015.0138 L69.6006,1006.9356 L67.1318,1006.9356 Z " fill="#FFFFFF"/><text fill="#FFFFFF" font-family="sans-serif" font-size="14" font-style="italic" lengthAdjust="spacing" textLength="76.084" x="91.71" y="1016.0167">ICommand</text><line style="stroke:#E7E7E7;stroke-width:0.5;" x1="8" x2="219.0039" y1="1027.17" y2="1027.17"/><line style="stroke:#E7E7E7;stroke-width:0.5;" x1="8" x2="219.0039" y1="1035.17" y2="1035.17"/><ellipse cx="18" cy="1048.8184" fill="#84BE84" rx="3" ry="3" style="stroke:#038048;stroke-width:1;"/><text fill="#FFFFFF" font-family="sans-serif" font-size="14" lengthAdjust="spacing" textLength="187.0039" x="27" y="1052.1651">void execute(IState state);</text><ellipse cx="18" cy="1065.1153" fill="#84BE84" rx="3" ry="3" style="stroke:#038048;stroke-width:1;"/><text fill="#FFFFFF" font-family="sans-serif" font-size="14" lengthAdjust="spacing" textLength="175.041" x="27" y="1068.462">float GetCooldownTime()</text></g><!--class CommandHistory--><g class="entity" data-entity="CommandHistory" data-source-line="7" data-uid="ent0003" id="entity_CommandHistory"><rect fill="#313139" height="129.4844" rx="2.5" ry="2.5" style="stroke:#E7E7E7;stroke-width:0.5;" width="252.7344" x="87.13" y="180.19"/><ellipse cx="148.3663" cy="196.19" fill="#2E5233" rx="11" ry="11" style="stroke:#E7E7E7;stroke-width:1;"/><path d="M151.3351,201.8306 Q150.757,202.1275 150.1163,202.2681 Q149.4757,202.4244 148.7726,202.4244 Q146.2726,202.4244 144.9445,200.7838 Q143.632,199.1275 143.632,196.0025 Q143.632,192.8775 144.9445,191.2213 Q146.2726,189.565 148.7726,189.565 Q149.4757,189.565 150.1163,189.7213 Q150.7726,189.8775 151.3351,190.1744 L151.3351,192.8931 Q150.7101,192.315 150.1163,192.0494 Q149.5226,191.7681 148.8976,191.7681 Q147.5538,191.7681 146.8663,192.8463 Q146.1788,193.9088 146.1788,196.0025 Q146.1788,198.0963 146.8663,199.1744 Q147.5538,200.2369 148.8976,200.2369 Q149.5226,200.2369 150.1163,199.9713 Q150.7101,199.69 151.3351,199.1119 L151.3351,201.8306 Z " fill="#FFFFFF"/><text fill="#FFFFFF" font-family="sans-serif" font-size="14" lengthAdjust="spacing" textLength="121.7617" x="168.8663" y="201.0367">CommandHistory</text><line style="stroke:#E7E7E7;stroke-width:0.5;" x1="88.13" x2="338.8644" y1="212.19" y2="212.19"/><rect fill="none" height="6" style="stroke:#C82930;stroke-width:1;" width="6" x="95.13" y="222.8384"/><text fill="#FFFFFF" font-family="sans-serif" font-size="14" lengthAdjust="spacing" textLength="163.0508" x="107.13" y="229.1851">Combos comboHistory;</text><rect fill="none" height="6" style="stroke:#C82930;stroke-width:1;" width="6" x="95.13" y="239.1353"/><text fill="#FFFFFF" font-family="sans-serif" font-size="14" lengthAdjust="spacing" textLength="144.0127" x="107.13" y="245.482">Combos setCombos;</text><line style="stroke:#E7E7E7;stroke-width:0.5;" x1="88.13" x2="338.8644" y1="252.7838" y2="252.7838"/><ellipse cx="98.13" cy="266.4322" fill="#84BE84" rx="3" ry="3" style="stroke:#038048;stroke-width:1;"/><text fill="#FFFFFF" font-family="sans-serif" font-size="14" lengthAdjust="spacing" textLength="226.7344" x="107.13" y="269.7789">void addCombo(Combo combo);</text><ellipse cx="98.13" cy="282.7291" fill="#84BE84" rx="3" ry="3" style="stroke:#038048;stroke-width:1;"/><text fill="#FFFFFF" font-family="sans-serif" font-size="14" lengthAdjust="spacing" textLength="139.2617" x="107.13" y="286.0757">void ResetHistory();</text><ellipse cx="98.13" cy="299.0259" fill="#84BE84" rx="3" ry="3" style="stroke:#038048;stroke-width:1;"/><text fill="#FFFFFF" font-family="sans-serif" font-size="14" lengthAdjust="spacing" textLength="211.0459" x="107.13" y="302.3726">ICommand CheckForCombo();</text></g><!--class NormaleAttackCommand--><g class="entity" data-entity="NormaleAttackCommand" data-source-line="16" data-uid="ent0004" id="entity_NormaleAttackCommand"><rect fill="#313139" height="48" rx="2.5" ry="2.5" style="stroke:#E7E7E7;stroke-width:0.5;" width="208.4082" x="9.3" y="1143.91"/><ellipse cx="24.3" cy="1159.91" fill="#2E5233" rx="11" ry="11" style="stroke:#E7E7E7;stroke-width:1;"/><path d="M27.2688,1165.5506 Q26.6906,1165.8475 26.05,1165.9881 Q25.4094,1166.1444 24.7063,1166.1444 Q22.2063,1166.1444 20.8781,1164.5038 Q19.5656,1162.8475 19.5656,1159.7225 Q19.5656,1156.5975 20.8781,1154.9413 Q22.2063,1153.285 24.7063,1153.285 Q25.4094,1153.285 26.05,1153.4413 Q26.7063,1153.5975 27.2688,1153.8944 L27.2688,1156.6131 Q26.6438,1156.035 26.05,1155.7694 Q25.4563,1155.4881 24.8313,1155.4881 Q23.4875,1155.4881 22.8,1156.5663 Q22.1125,1157.6288 22.1125,1159.7225 Q22.1125,1161.8163 22.8,1162.8944 Q23.4875,1163.9569 24.8313,1163.9569 Q25.4563,1163.9569 26.05,1163.6913 Q26.6438,1163.41 27.2688,1162.8319 L27.2688,1165.5506 Z " fill="#FFFFFF"/><text fill="#FFFFFF" font-family="sans-serif" font-size="14" lengthAdjust="spacing" textLength="176.4082" x="38.3" y="1164.7567">NormaleAttackCommand</text><line style="stroke:#E7E7E7;stroke-width:0.5;" x1="10.3" x2="216.7082" y1="1175.91" y2="1175.91"/><line style="stroke:#E7E7E7;stroke-width:0.5;" x1="10.3" x2="216.7082" y1="1183.91" y2="1183.91"/></g><!--class Combos--><g class="entity" data-entity="Combos" data-source-line="20" data-uid="ent0005" id="entity_Combos"><rect fill="#313139" height="64.2969" rx="2.5" ry="2.5" style="stroke:#E7E7E7;stroke-width:0.5;" width="187.1777" x="88.91" y="410.42"/><ellipse cx="149.8866" cy="426.42" fill="#2E5233" rx="11" ry="11" style="stroke:#E7E7E7;stroke-width:1;"/><path d="M152.8553,432.0606 Q152.2772,432.3575 151.6366,432.4981 Q150.9959,432.6544 150.2928,432.6544 Q147.7928,432.6544 146.4647,431.0138 Q145.1522,429.3575 145.1522,426.2325 Q145.1522,423.1075 146.4647,421.4513 Q147.7928,419.795 150.2928,419.795 Q150.9959,419.795 151.6366,419.9513 Q152.2928,420.1075 152.8553,420.4044 L152.8553,423.1231 Q152.2303,422.545 151.6366,422.2794 Q151.0428,421.9981 150.4178,421.9981 Q149.0741,421.9981 148.3866,423.0763 Q147.6991,424.1388 147.6991,426.2325 Q147.6991,428.3263 148.3866,429.4044 Q149.0741,430.4669 150.4178,430.4669 Q151.0428,430.4669 151.6366,430.2013 Q152.2303,429.92 152.8553,429.3419 L152.8553,432.0606 Z " fill="#FFFFFF"/><text fill="#FFFFFF" font-family="sans-serif" font-size="14" lengthAdjust="spacing" textLength="56.7246" x="170.3866" y="431.2667">Combos</text><line style="stroke:#E7E7E7;stroke-width:0.5;" x1="89.91" x2="275.0877" y1="442.42" y2="442.42"/><rect fill="none" height="6" style="stroke:#C82930;stroke-width:1;" width="6" x="96.91" y="453.0684"/><text fill="#FFFFFF" font-family="sans-serif" font-size="14" lengthAdjust="spacing" textLength="161.1777" x="108.91" y="459.4151">List&lt;Combo&gt; combos;</text><line style="stroke:#E7E7E7;stroke-width:0.5;" x1="89.91" x2="275.0877" y1="466.7169" y2="466.7169"/></g><!--class Combo--><g class="entity" data-entity="Combo" data-source-line="25" data-uid="ent0006" id="entity_Combo"><rect fill="#313139" height="113.1875" rx="2.5" ry="2.5" style="stroke:#E7E7E7;stroke-width:0.5;" width="179.2754" x="76.86" y="599.9"/><ellipse cx="137.5324" cy="615.9" fill="#2E5233" rx="11" ry="11" style="stroke:#E7E7E7;stroke-width:1;"/><path d="M140.5011,621.5406 Q139.923,621.8375 139.2824,621.9781 Q138.6417,622.1344 137.9386,622.1344 Q135.4386,622.1344 134.1105,620.4938 Q132.798,618.8375 132.798,615.7125 Q132.798,612.5875 134.1105,610.9313 Q135.4386,609.275 137.9386,609.275 Q138.6417,609.275 139.2824,609.4313 Q139.9386,609.5875 140.5011,609.8844 L140.5011,612.6031 Q139.8761,612.025 139.2824,611.7594 Q138.6886,611.4781 138.0636,611.4781 Q136.7199,611.4781 136.0324,612.5563 Q135.3449,613.6188 135.3449,615.7125 Q135.3449,617.8063 136.0324,618.8844 Q136.7199,619.9469 138.0636,619.9469 Q138.6886,619.9469 139.2824,619.6813 Q139.8761,619.4 140.5011,618.8219 L140.5011,621.5406 Z " fill="#FFFFFF"/><text fill="#FFFFFF" font-family="sans-serif" font-size="14" lengthAdjust="spacing" textLength="49.4307" x="158.0324" y="620.7467">Combo</text><line style="stroke:#E7E7E7;stroke-width:0.5;" x1="77.86" x2="255.1354" y1="631.9" y2="631.9"/><rect fill="none" height="6" style="stroke:#C82930;stroke-width:1;" width="6" x="84.86" y="642.5484"/><text fill="#FFFFFF" font-family="sans-serif" font-size="14" lengthAdjust="spacing" textLength="89.0586" x="96.86" y="648.8951">string name;</text><rect fill="none" height="6" style="stroke:#C82930;stroke-width:1;" width="6" x="84.86" y="658.8453"/><text fill="#FFFFFF" font-family="sans-serif" font-size="14" lengthAdjust="spacing" textLength="153.2754" x="96.86" y="665.192">List&lt;Attack&gt; attacks;</text><rect fill="none" height="6" style="stroke:#C82930;stroke-width:1;" width="6" x="84.86" y="675.1422"/><text fill="#FFFFFF" font-family="sans-serif" font-size="14" lengthAdjust="spacing" textLength="141.668" x="96.86" y="681.4889">ICommand Execute;</text><rect fill="none" height="6" style="stroke:#C82930;stroke-width:1;" width="6" x="84.86" y="691.4391"/><text fill="#FFFFFF" font-family="sans-serif" font-size="14" lengthAdjust="spacing" textLength="58.8301" x="96.86" y="697.7857">int dmg;</text><line style="stroke:#E7E7E7;stroke-width:0.5;" x1="77.86" x2="255.1354" y1="705.0875" y2="705.0875"/></g><!--class Attack--><g class="entity" data-entity="Attack" data-source-line="33" data-uid="ent0007" id="entity_Attack"><rect fill="#313139" height="80.5938" rx="2.5" ry="2.5" style="stroke:#E7E7E7;stroke-width:0.5;" width="167.1279" x="139.94" y="821.98"/><ellipse cx="196.7842" cy="837.98" fill="#2E5233" rx="11" ry="11" style="stroke:#E7E7E7;stroke-width:1;"/><path d="M199.753,843.6206 Q199.1749,843.9175 198.5342,844.0581 Q197.8936,844.2144 197.1905,844.2144 Q194.6905,844.2144 193.3624,842.5738 Q192.0499,840.9175 192.0499,837.7925 Q192.0499,834.6675 193.3624,833.0113 Q194.6905,831.355 197.1905,831.355 Q197.8936,831.355 198.5342,831.5113 Q199.1905,831.6675 199.753,831.9644 L199.753,834.6831 Q199.128,834.105 198.5342,833.8394 Q197.9405,833.5581 197.3155,833.5581 Q195.9717,833.5581 195.2842,834.6363 Q194.5967,835.6988 194.5967,837.7925 Q194.5967,839.8863 195.2842,840.9644 Q195.9717,842.0269 197.3155,842.0269 Q197.9405,842.0269 198.5342,841.7613 Q199.128,841.48 199.753,840.9019 L199.753,843.6206 Z " fill="#FFFFFF"/><text fill="#FFFFFF" font-family="sans-serif" font-size="14" lengthAdjust="spacing" textLength="44.9395" x="217.2842" y="842.8267">Attack</text><line style="stroke:#E7E7E7;stroke-width:0.5;" x1="140.94" x2="306.0679" y1="853.98" y2="853.98"/><text fill="#FFFFFF" font-family="sans-serif" font-size="14" lengthAdjust="spacing" textLength="85.8184" x="145.94" y="870.9751">IState state;</text><text fill="#FFFFFF" font-family="sans-serif" font-size="14" lengthAdjust="spacing" textLength="155.1279" x="145.94" y="887.272">ICommand command;</text><line style="stroke:#E7E7E7;stroke-width:0.5;" x1="140.94" x2="306.0679" y1="894.5738" y2="894.5738"/></g><!--class StateMachine--><g class="entity" data-entity="StateMachine" data-source-line="39" data-uid="ent0008" id="entity_StateMachine"><rect fill="#313139" height="162.0781" rx="2.5" ry="2.5" style="stroke:#E7E7E7;stroke-width:0.5;" width="251.3193" x="290.84" y="575.46"/><ellipse cx="364.4186" cy="591.46" fill="#2E5233" rx="11" ry="11" style="stroke:#E7E7E7;stroke-width:1;"/><path d="M367.3874,597.1006 Q366.8092,597.3975 366.1686,597.5381 Q365.528,597.6944 364.8249,597.6944 Q362.3249,597.6944 360.9967,596.0538 Q359.6842,594.3975 359.6842,591.2725 Q359.6842,588.1475 360.9967,586.4913 Q362.3249,584.835 364.8249,584.835 Q365.528,584.835 366.1686,584.9913 Q366.8249,585.1475 367.3874,585.4444 L367.3874,588.1631 Q366.7624,587.585 366.1686,587.3194 Q365.5749,587.0381 364.9499,587.0381 Q363.6061,587.0381 362.9186,588.1163 Q362.2311,589.1788 362.2311,591.2725 Q362.2311,593.3663 362.9186,594.4444 Q363.6061,595.5069 364.9499,595.5069 Q365.5749,595.5069 366.1686,595.2413 Q366.7624,594.96 367.3874,594.3819 L367.3874,597.1006 Z " fill="#FFFFFF"/><text fill="#FFFFFF" font-family="sans-serif" font-size="14" lengthAdjust="spacing" textLength="95.6621" x="384.9186" y="596.3067">StateMachine</text><line style="stroke:#E7E7E7;stroke-width:0.5;" x1="291.84" x2="541.1593" y1="607.46" y2="607.46"/><rect fill="none" height="6" style="stroke:#C82930;stroke-width:1;" width="6" x="298.84" y="618.1084"/><text fill="#FFFFFF" font-family="sans-serif" font-size="14" lengthAdjust="spacing" textLength="138.4688" x="310.84" y="624.4551">IState currentState;</text><rect fill="none" height="6" style="stroke:#C82930;stroke-width:1;" width="6" x="298.84" y="634.4053"/><text fill="#FFFFFF" font-family="sans-serif" font-size="14" lengthAdjust="spacing" textLength="158.9971" x="310.84" y="640.752">List&lt;IState&gt; allStates;</text><rect fill="none" height="6" style="stroke:#C82930;stroke-width:1;" width="6" x="298.84" y="650.7022"/><text fill="#FFFFFF" font-family="sans-serif" font-size="14" lengthAdjust="spacing" textLength="208.1475" x="310.84" y="657.0489">List&lt;Transitions&gt; transitions;</text><line style="stroke:#E7E7E7;stroke-width:0.5;" x1="291.84" x2="541.1593" y1="664.3506" y2="664.3506"/><ellipse cx="301.84" cy="677.9991" fill="#84BE84" rx="3" ry="3" style="stroke:#038048;stroke-width:1;"/><text fill="#FFFFFF" font-family="sans-serif" font-size="14" lengthAdjust="spacing" textLength="120.3125" x="310.84" y="681.3457">void OnUpdate();</text><ellipse cx="301.84" cy="694.2959" fill="#84BE84" rx="3" ry="3" style="stroke:#038048;stroke-width:1;"/><text fill="#FFFFFF" font-family="sans-serif" font-size="14" lengthAdjust="spacing" textLength="195.2275" x="310.84" y="697.6426">void AddState(IState state);</text><ellipse cx="301.84" cy="710.5928" fill="#84BE84" rx="3" ry="3" style="stroke:#038048;stroke-width:1;"/><text fill="#FFFFFF" font-family="sans-serif" font-size="14" lengthAdjust="spacing" textLength="225.3193" x="310.84" y="713.9395">void RemoveState(IState state);</text><ellipse cx="301.84" cy="726.8897" fill="#84BE84" rx="3" ry="3" style="stroke:#038048;stroke-width:1;"/><text fill="#FFFFFF" font-family="sans-serif" font-size="14" lengthAdjust="spacing" textLength="212.5703" x="310.84" y="730.2364">void SwitchState(Istate state);</text></g><!--class BaseState--><g class="entity" data-entity="BaseState" data-source-line="50" data-uid="ent0009" id="entity_BaseState"><rect fill="#313139" height="145.7813" rx="2.5" ry="2.5" style="stroke:#E7E7E7;stroke-width:0.5;" width="326.3301" x="469.34" y="369.68"/><ellipse cx="587.0158" cy="385.68" fill="#2A5D60" rx="11" ry="11" style="stroke:#E7E7E7;stroke-width:1;"/><path d="M587.1252,381.0238 L585.9689,386.1019 L588.297,386.1019 L587.1252,381.0238 Z M585.6408,378.7894 L588.6252,378.7894 L591.9845,391.18 L589.5314,391.18 L588.7658,388.1175 L585.4845,388.1175 L584.7345,391.18 L582.297,391.18 L585.6408,378.7894 Z " fill="#FFFFFF"/><text fill="#FFFFFF" font-family="sans-serif" font-size="14" font-style="italic" lengthAdjust="spacing" textLength="71.1484" x="607.5158" y="390.5267">BaseState</text><rect fill="#FFFFFF" height="15.9688" style="stroke:#E7E7E7;stroke-width:1;stroke-dasharray:2.0,2.0;" width="9.3301" x="789.34" y="366.68"/><text fill="#000000" font-family="sans-serif" font-size="12" font-style="italic" lengthAdjust="spacing" textLength="7.3301" x="790.34" y="378.8187">T</text><line style="stroke:#E7E7E7;stroke-width:0.5;" x1="470.34" x2="794.6701" y1="401.68" y2="401.68"/><polygon fill="none" points="480.34,410.3284,484.34,414.3284,480.34,418.3284,476.34,414.3284" style="stroke:#B38D22;stroke-width:1;"/><text fill="#FFFFFF" font-family="sans-serif" font-size="14" lengthAdjust="spacing" textLength="113.3809" x="489.34" y="418.6751">T StateMachine;</text><line style="stroke:#E7E7E7;stroke-width:0.5;" x1="470.34" x2="794.6701" y1="425.9769" y2="425.9769"/><text fill="#FFFFFF" font-family="sans-serif" font-size="14" lengthAdjust="spacing" textLength="193.8604" x="475.34" y="442.972">BaseState(T stateMachine);</text><text fill="#FFFFFF" font-family="sans-serif" font-size="14" lengthAdjust="spacing" textLength="120.3125" x="475.34" y="459.2689">void OnUpdate();</text><text fill="#FFFFFF" font-family="sans-serif" font-size="14" lengthAdjust="spacing" textLength="314.3301" x="475.34" y="475.5657">void OnHandelAttack(ICommand command);</text><text fill="#FFFFFF" font-family="sans-serif" font-size="14" lengthAdjust="spacing" textLength="144.2451" x="475.34" y="491.8626">void OnEnterState();</text><text fill="#FFFFFF" font-family="sans-serif" font-size="14" lengthAdjust="spacing" textLength="133.1777" x="475.34" y="508.1595">void OnExitState();</text></g><!--class IState--><g class="entity" data-entity="IState" data-source-line="60" data-uid="ent0010" id="entity_IState"><rect fill="#313139" height="96.8906" rx="2.5" ry="2.5" style="stroke:#E7E7E7;stroke-width:0.5;" width="156.2451" x="282.38" y="987.02"/><ellipse cx="335.6593" cy="1003.02" fill="#352866" rx="11" ry="11" style="stroke:#E7E7E7;stroke-width:1;"/><path d="M331.5812,998.7856 L331.5812,996.6294 L338.9718,996.6294 L338.9718,998.7856 L336.503,998.7856 L336.503,1006.8638 L338.9718,1006.8638 L338.9718,1009.02 L331.5812,1009.02 L331.5812,1006.8638 L334.0499,1006.8638 L334.0499,998.7856 L331.5812,998.7856 Z " fill="#FFFFFF"/><text fill="#FFFFFF" font-family="sans-serif" font-size="14" font-style="italic" lengthAdjust="spacing" textLength="41.1865" x="356.1593" y="1007.8667">IState</text><line style="stroke:#E7E7E7;stroke-width:0.5;" x1="283.38" x2="437.6251" y1="1019.02" y2="1019.02"/><line style="stroke:#E7E7E7;stroke-width:0.5;" x1="283.38" x2="437.6251" y1="1027.02" y2="1027.02"/><text fill="#FFFFFF" font-family="sans-serif" font-size="14" lengthAdjust="spacing" textLength="120.3125" x="288.38" y="1044.0151">void OnUpdate();</text><text fill="#FFFFFF" font-family="sans-serif" font-size="14" lengthAdjust="spacing" textLength="144.2451" x="288.38" y="1060.312">void OnEnterState();</text><text fill="#FFFFFF" font-family="sans-serif" font-size="14" lengthAdjust="spacing" textLength="133.1777" x="288.38" y="1076.6089">void OnExitState();</text></g><!--class Transition--><g class="entity" data-entity="Transition" data-source-line="67" data-uid="ent0011" id="entity_Transition"><rect fill="#313139" height="129.4844" rx="2.5" ry="2.5" style="stroke:#E7E7E7;stroke-width:0.5;" width="311.0996" x="413.95" y="797.53"/><ellipse cx="530.3694" cy="813.53" fill="#2E5233" rx="11" ry="11" style="stroke:#E7E7E7;stroke-width:1;"/><path d="M533.3382,819.1706 Q532.7601,819.4675 532.1194,819.6081 Q531.4788,819.7644 530.7757,819.7644 Q528.2757,819.7644 526.9476,818.1238 Q525.6351,816.4675 525.6351,813.3425 Q525.6351,810.2175 526.9476,808.5613 Q528.2757,806.905 530.7757,806.905 Q531.4788,806.905 532.1194,807.0613 Q532.7757,807.2175 533.3382,807.5144 L533.3382,810.2331 Q532.7132,809.655 532.1194,809.3894 Q531.5257,809.1081 530.9007,809.1081 Q529.5569,809.1081 528.8694,810.1863 Q528.1819,811.2488 528.1819,813.3425 Q528.1819,815.4363 528.8694,816.5144 Q529.5569,817.5769 530.9007,817.5769 Q531.5257,817.5769 532.1194,817.3113 Q532.7132,817.03 533.3382,816.4519 L533.3382,819.1706 Z " fill="#FFFFFF"/><text fill="#FFFFFF" font-family="sans-serif" font-size="14" lengthAdjust="spacing" textLength="69.7607" x="550.8694" y="818.3767">Transition</text><line style="stroke:#E7E7E7;stroke-width:0.5;" x1="414.95" x2="724.0496" y1="829.53" y2="829.53"/><rect fill="none" height="6" style="stroke:#C82930;stroke-width:1;" width="6" x="421.95" y="840.1784"/><text fill="#FFFFFF" font-family="sans-serif" font-size="14" lengthAdjust="spacing" textLength="120.2988" x="433.95" y="846.5251">IState fromState;</text><rect fill="none" height="6" style="stroke:#C82930;stroke-width:1;" width="6" x="421.95" y="856.4753"/><text fill="#FFFFFF" font-family="sans-serif" font-size="14" lengthAdjust="spacing" textLength="101.4658" x="433.95" y="862.822">IState toState;</text><rect fill="none" height="6" style="stroke:#C82930;stroke-width:1;" width="6" x="421.95" y="872.7722"/><text fill="#FFFFFF" font-family="sans-serif" font-size="14" lengthAdjust="spacing" textLength="214.293" x="433.95" y="879.1189">System.func&lt;bool&gt; condition;</text><line style="stroke:#E7E7E7;stroke-width:0.5;" x1="414.95" x2="724.0496" y1="886.4206" y2="886.4206"/><ellipse cx="424.95" cy="900.0691" fill="#84BE84" rx="3" ry="3" style="stroke:#038048;stroke-width:1;"/><text fill="#FFFFFF" font-family="sans-serif" font-size="14" lengthAdjust="spacing" textLength="285.0996" x="433.95" y="903.4157">Transiton(fromState, toState, condition);</text><ellipse cx="424.95" cy="916.3659" fill="#84BE84" rx="3" ry="3" style="stroke:#038048;stroke-width:1;"/><text fill="#FFFFFF" font-family="sans-serif" font-size="14" lengthAdjust="spacing" textLength="159.8721" x="433.95" y="919.7126">bool CheckCondition();</text></g><!--class CoolDownManager--><g class="entity" data-entity="CoolDownManager" data-source-line="76" data-uid="ent0012" id="entity_CoolDownManager"><rect fill="#313139" height="129.4844" rx="2.5" ry="2.5" style="stroke:#E7E7E7;stroke-width:0.5;" width="268.5869" x="461.21" y="180.19"/><ellipse cx="525.3379" cy="196.19" fill="#2E5233" rx="11" ry="11" style="stroke:#E7E7E7;stroke-width:1;"/><path d="M528.3067,201.8306 Q527.7286,202.1275 527.0879,202.2681 Q526.4473,202.4244 525.7442,202.4244 Q523.2442,202.4244 521.9161,200.7838 Q520.6036,199.1275 520.6036,196.0025 Q520.6036,192.8775 521.9161,191.2213 Q523.2442,189.565 525.7442,189.565 Q526.4473,189.565 527.0879,189.7213 Q527.7442,189.8775 528.3067,190.1744 L528.3067,192.8931 Q527.6817,192.315 527.0879,192.0494 Q526.4942,191.7681 525.8692,191.7681 Q524.5254,191.7681 523.8379,192.8463 Q523.1504,193.9088 523.1504,196.0025 Q523.1504,198.0963 523.8379,199.1744 Q524.5254,200.2369 525.8692,200.2369 Q526.4942,200.2369 527.0879,199.9713 Q527.6817,199.69 528.3067,199.1119 L528.3067,201.8306 Z " fill="#FFFFFF"/><text fill="#FFFFFF" font-family="sans-serif" font-size="14" lengthAdjust="spacing" textLength="131.8311" x="545.8379" y="201.0367">CoolDownManager</text><line style="stroke:#E7E7E7;stroke-width:0.5;" x1="462.21" x2="728.7969" y1="212.19" y2="212.19"/><rect fill="none" height="6" style="stroke:#C82930;stroke-width:1;" width="6" x="469.21" y="222.8384"/><text fill="#FFFFFF" font-family="sans-serif" font-size="14" lengthAdjust="spacing" textLength="73.2881" x="481.21" y="229.1851">float timer</text><rect fill="none" height="6" style="stroke:#C82930;stroke-width:1;" width="6" x="469.21" y="239.1353"/><text fill="#FFFFFF" font-family="sans-serif" font-size="14" lengthAdjust="spacing" textLength="163.2012" x="481.21" y="245.482">float cooldownDuration</text><line style="stroke:#E7E7E7;stroke-width:0.5;" x1="462.21" x2="728.7969" y1="252.7838" y2="252.7838"/><ellipse cx="472.21" cy="266.4322" fill="#84BE84" rx="3" ry="3" style="stroke:#038048;stroke-width:1;"/><text fill="#FFFFFF" font-family="sans-serif" font-size="14" lengthAdjust="spacing" textLength="242.5869" x="481.21" y="269.7789">void StartCooldown(float duration)</text><ellipse cx="472.21" cy="282.7291" fill="#84BE84" rx="3" ry="3" style="stroke:#038048;stroke-width:1;"/><text fill="#FFFFFF" font-family="sans-serif" font-size="14" lengthAdjust="spacing" textLength="201.7559" x="481.21" y="286.0757">void Update(float deltaTime)</text><ellipse cx="472.21" cy="299.0259" fill="#84BE84" rx="3" ry="3" style="stroke:#038048;stroke-width:1;"/><text fill="#FFFFFF" font-family="sans-serif" font-size="14" lengthAdjust="spacing" textLength="145.168" x="481.21" y="302.3726">bool IsOnCooldown()</text></g><!--class GameManager--><g class="entity" data-entity="GameManager" data-source-line="84" data-uid="ent0013" id="entity_GameManager"><rect fill="#313139" height="113.1875" rx="2.5" ry="2.5" style="stroke:#E7E7E7;stroke-width:0.5;" width="282.751" x="267.13" y="7"/><ellipse cx="352.733" cy="23" fill="#2E5233" rx="11" ry="11" style="stroke:#E7E7E7;stroke-width:1;"/><path d="M355.7018,28.6406 Q355.1237,28.9375 354.483,29.0781 Q353.8424,29.2344 353.1393,29.2344 Q350.6393,29.2344 349.3112,27.5938 Q347.9987,25.9375 347.9987,22.8125 Q347.9987,19.6875 349.3112,18.0313 Q350.6393,16.375 353.1393,16.375 Q353.8424,16.375 354.483,16.5313 Q355.1393,16.6875 355.7018,16.9844 L355.7018,19.7031 Q355.0768,19.125 354.483,18.8594 Q353.8893,18.5781 353.2643,18.5781 Q351.9205,18.5781 351.233,19.6563 Q350.5455,20.7188 350.5455,22.8125 Q350.5455,24.9063 351.233,25.9844 Q351.9205,27.0469 353.2643,27.0469 Q353.8893,27.0469 354.483,26.7813 Q355.0768,26.5 355.7018,25.9219 L355.7018,28.6406 Z " fill="#FFFFFF"/><text fill="#FFFFFF" font-family="sans-serif" font-size="14" lengthAdjust="spacing" textLength="103.0449" x="373.233" y="27.8467">GameManager</text><line style="stroke:#E7E7E7;stroke-width:0.5;" x1="268.13" x2="548.881" y1="39" y2="39"/><text fill="#FFFFFF" font-family="sans-serif" font-size="14" lengthAdjust="spacing" textLength="198.8984" x="273.13" y="55.9951">StateMachine stateMachine;</text><text fill="#FFFFFF" font-family="sans-serif" font-size="14" lengthAdjust="spacing" textLength="270.751" x="273.13" y="72.292">CoolDownManager coolDownManager;</text><text fill="#FFFFFF" font-family="sans-serif" font-size="14" lengthAdjust="spacing" textLength="250.6123" x="273.13" y="88.5889">CommandHistory commandHistory;</text><line style="stroke:#E7E7E7;stroke-width:0.5;" x1="268.13" x2="548.881" y1="95.8906" y2="95.8906"/><rect fill="#F24D5C" height="6" style="stroke:#C82930;stroke-width:1;" width="6" x="275.13" y="106.5391"/><text fill="#FFFFFF" font-family="sans-serif" font-size="14" lengthAdjust="spacing" textLength="99.0459" x="287.13" y="112.8857">void update();</text></g><!--class IdleState--><g class="entity" data-entity="IdleState" data-source-line="92" data-uid="ent0014" id="entity_IdleState"><rect fill="#313139" height="48" rx="2.5" ry="2.5" style="stroke:#E7E7E7;stroke-width:0.5;" width="94.5762" x="577.21" y="632.5"/><ellipse cx="592.21" cy="648.5" fill="#2E5233" rx="11" ry="11" style="stroke:#E7E7E7;stroke-width:1;"/><path d="M595.1788,654.1406 Q594.6006,654.4375 593.96,654.5781 Q593.3194,654.7344 592.6163,654.7344 Q590.1163,654.7344 588.7881,653.0938 Q587.4756,651.4375 587.4756,648.3125 Q587.4756,645.1875 588.7881,643.5313 Q590.1163,641.875 592.6163,641.875 Q593.3194,641.875 593.96,642.0313 Q594.6163,642.1875 595.1788,642.4844 L595.1788,645.2031 Q594.5538,644.625 593.96,644.3594 Q593.3663,644.0781 592.7413,644.0781 Q591.3975,644.0781 590.71,645.1563 Q590.0225,646.2188 590.0225,648.3125 Q590.0225,650.4063 590.71,651.4844 Q591.3975,652.5469 592.7413,652.5469 Q593.3663,652.5469 593.96,652.2813 Q594.5538,652 595.1788,651.4219 L595.1788,654.1406 Z " fill="#FFFFFF"/><text fill="#FFFFFF" font-family="sans-serif" font-size="14" lengthAdjust="spacing" textLength="62.5762" x="606.21" y="653.3467">IdleState</text><line style="stroke:#E7E7E7;stroke-width:0.5;" x1="578.21" x2="670.7862" y1="664.5" y2="664.5"/><line style="stroke:#E7E7E7;stroke-width:0.5;" x1="578.21" x2="670.7862" y1="672.5" y2="672.5"/></g><!--class AirState--><g class="entity" data-entity="AirState" data-source-line="96" data-uid="ent0015" id="entity_AirState"><rect fill="#313139" height="48" rx="2.5" ry="2.5" style="stroke:#E7E7E7;stroke-width:0.5;" width="88.2803" x="706.36" y="632.5"/><ellipse cx="721.36" cy="648.5" fill="#2E5233" rx="11" ry="11" style="stroke:#E7E7E7;stroke-width:1;"/><path d="M724.3288,654.1406 Q723.7506,654.4375 723.11,654.5781 Q722.4694,654.7344 721.7663,654.7344 Q719.2663,654.7344 717.9381,653.0938 Q716.6256,651.4375 716.6256,648.3125 Q716.6256,645.1875 717.9381,643.5313 Q719.2663,641.875 721.7663,641.875 Q722.4694,641.875 723.11,642.0313 Q723.7663,642.1875 724.3288,642.4844 L724.3288,645.2031 Q723.7038,644.625 723.11,644.3594 Q722.5163,644.0781 721.8913,644.0781 Q720.5475,644.0781 719.86,645.1563 Q719.1725,646.2188 719.1725,648.3125 Q719.1725,650.4063 719.86,651.4844 Q720.5475,652.5469 721.8913,652.5469 Q722.5163,652.5469 723.11,652.2813 Q723.7038,652 724.3288,651.4219 L724.3288,654.1406 Z " fill="#FFFFFF"/><text fill="#FFFFFF" font-family="sans-serif" font-size="14" lengthAdjust="spacing" textLength="56.2803" x="735.36" y="653.3467">AirState</text><line style="stroke:#E7E7E7;stroke-width:0.5;" x1="707.36" x2="793.6403" y1="664.5" y2="664.5"/><line style="stroke:#E7E7E7;stroke-width:0.5;" x1="707.36" x2="793.6403" y1="672.5" y2="672.5"/></g><!--class MovingState--><g class="entity" data-entity="MovingState" data-source-line="100" data-uid="ent0016" id="entity_MovingState"><rect fill="#313139" height="48" rx="2.5" ry="2.5" style="stroke:#E7E7E7;stroke-width:0.5;" width="119.6367" x="829.68" y="632.5"/><ellipse cx="844.68" cy="648.5" fill="#2E5233" rx="11" ry="11" style="stroke:#E7E7E7;stroke-width:1;"/><path d="M847.6488,654.1406 Q847.0706,654.4375 846.43,654.5781 Q845.7894,654.7344 845.0863,654.7344 Q842.5863,654.7344 841.2581,653.0938 Q839.9456,651.4375 839.9456,648.3125 Q839.9456,645.1875 841.2581,643.5313 Q842.5863,641.875 845.0863,641.875 Q845.7894,641.875 846.43,642.0313 Q847.0863,642.1875 847.6488,642.4844 L847.6488,645.2031 Q847.0238,644.625 846.43,644.3594 Q845.8363,644.0781 845.2113,644.0781 Q843.8675,644.0781 843.18,645.1563 Q842.4925,646.2188 842.4925,648.3125 Q842.4925,650.4063 843.18,651.4844 Q843.8675,652.5469 845.2113,652.5469 Q845.8363,652.5469 846.43,652.2813 Q847.0238,652 847.6488,651.4219 L847.6488,654.1406 Z " fill="#FFFFFF"/><text fill="#FFFFFF" font-family="sans-serif" font-size="14" lengthAdjust="spacing" textLength="87.6367" x="858.68" y="653.3467">MovingState</text><line style="stroke:#E7E7E7;stroke-width:0.5;" x1="830.68" x2="948.3167" y1="664.5" y2="664.5"/><line style="stroke:#E7E7E7;stroke-width:0.5;" x1="830.68" x2="948.3167" y1="672.5" y2="672.5"/></g><!--link BaseState to AirState--><g class="link" data-entity-1="BaseState" data-entity-2="AirState" data-source-line="104" data-uid="lnk17" id="link_BaseState_AirState"><path codeLine="104" d="M672.78,515.91 C695.35,556.44 719.0713,599.0477 734.5713,626.8877" fill="none" id="BaseState-to-AirState" style="stroke:#E7E7E7;stroke-width:1;"/><polygon fill="#E7E7E7" points="737.49,632.13,736.6069,622.3208,735.0578,627.7614,729.6172,626.2124,737.49,632.13" style="stroke:#E7E7E7;stroke-width:1;"/></g><!--link BaseState to MovingState--><g class="link" data-entity-1="BaseState" data-entity-2="MovingState" data-source-line="105" data-uid="lnk18" id="link_BaseState_MovingState"><path codeLine="105" d="M737.67,515.94 C762.84,534.52 789.17,555.05 812.5,575.46 C832.82,593.23 849.9224,611.0527 864.8924,627.5827" fill="none" id="BaseState-to-MovingState" style="stroke:#E7E7E7;stroke-width:1;"/><polygon fill="#E7E7E7" points="868.92,632.03,865.8435,622.674,865.5637,628.3239,859.9137,628.0441,868.92,632.03" style="stroke:#E7E7E7;stroke-width:1;"/></g><!--link BaseState to IdleState--><g class="link" data-entity-1="BaseState" data-entity-2="IdleState" data-source-line="106" data-uid="lnk19" id="link_BaseState_IdleState"><path codeLine="106" d="M629.77,515.91 C628.24,556.44 626.6561,598.2943 625.6061,626.1343" fill="none" id="BaseState-to-IdleState" style="stroke:#E7E7E7;stroke-width:1;"/><polygon fill="#E7E7E7" points="625.38,632.13,629.7164,623.2871,625.5684,627.1336,621.722,622.9856,625.38,632.13" style="stroke:#E7E7E7;stroke-width:1;"/></g><!--link GameManager to StateMachine--><g class="link" data-entity-1="GameManager" data-entity-2="StateMachine" data-source-line="107" data-uid="lnk20" id="link_GameManager_StateMachine"><path codeLine="107" d="M409.26,120.45 C410.68,225.6 413.5973,441.2911 415.2473,562.9811" fill="none" id="GameManager-to-StateMachine" style="stroke:#E7E7E7;stroke-width:1;stroke-dasharray:7.0,7.0;"/><polygon fill="#E7E7E7" points="415.41,574.98,419.3283,568.9263,415.2473,562.9811,411.329,569.0348,415.41,574.98" style="stroke:#E7E7E7;stroke-width:1;"/></g><!--link ICommand to NormaleAttackCommand--><g class="link" data-entity-1="ICommand" data-entity-2="NormaleAttackCommand" data-source-line="108" data-uid="lnk21" id="link_ICommand_NormaleAttackCommand"><path codeLine="108" d="M113.5,1075.96 C113.5,1098 113.5,1118.72 113.5,1137.47" fill="none" id="ICommand-to-NormaleAttackCommand" style="stroke:#E7E7E7;stroke-width:1;"/><polygon fill="#E7E7E7" points="113.5,1143.47,117.5,1134.47,113.5,1138.47,109.5,1134.47,113.5,1143.47" style="stroke:#E7E7E7;stroke-width:1;"/></g><!--link CommandHistory to Combos--><g class="link" data-entity-1="CommandHistory" data-entity-2="Combos" data-source-line="109" data-uid="lnk22" id="link_CommandHistory_Combos"><path codeLine="109" d="M203.35,309.99 C198.04,343.53 193.6349,371.2574 189.3749,398.1874" fill="none" id="CommandHistory-to-Combos" style="stroke:#E7E7E7;stroke-width:1;stroke-dasharray:7.0,7.0;"/><polygon fill="#E7E7E7" points="187.5,410.04,192.3883,404.7387,189.3749,398.1874,184.4866,403.4887,187.5,410.04" style="stroke:#E7E7E7;stroke-width:1;"/></g><!--link BaseState to StateMachine--><g class="link" data-entity-1="BaseState" data-entity-2="StateMachine" data-source-line="110" data-uid="lnk23" id="link_BaseState_StateMachine"><path codeLine="110" d="M558.77,515.91 C539.34,534.97 526.8269,547.2572 506.9869,566.7172" fill="none" id="BaseState-to-StateMachine" style="stroke:#E7E7E7;stroke-width:1;stroke-dasharray:7.0,7.0;"/><polygon fill="#E7E7E7" points="498.42,575.12,505.5044,573.7742,506.9869,566.7172,499.9025,568.0629,498.42,575.12" style="stroke:#E7E7E7;stroke-width:1;"/></g><!--link GameManager to CommandHistory--><g class="link" data-entity-1="GameManager" data-entity-2="CommandHistory" data-source-line="111" data-uid="lnk24" id="link_GameManager_CommandHistory"><path codeLine="111" d="M347.6,120.6 C327.15,139.41 313.0242,152.4086 291.9542,171.7786" fill="none" id="GameManager-to-CommandHistory" style="stroke:#E7E7E7;stroke-width:1;stroke-dasharray:7.0,7.0;"/><polygon fill="#E7E7E7" points="283.12,179.9,290.2442,178.784,291.9542,171.7786,284.83,172.8946,283.12,179.9" style="stroke:#E7E7E7;stroke-width:1;"/></g><!--link GameManager to CoolDownManager--><g class="link" data-entity-1="GameManager" data-entity-2="CoolDownManager" data-source-line="112" data-uid="lnk25" id="link_GameManager_CoolDownManager"><path codeLine="112" d="M466.9,120.6 C486.51,139.41 499.8666,152.2267 520.0766,171.5967" fill="none" id="GameManager-to-CoolDownManager" style="stroke:#E7E7E7;stroke-width:1;stroke-dasharray:7.0,7.0;"/><polygon fill="#E7E7E7" points="528.74,179.9,527.1761,172.8605,520.0766,171.5967,521.6405,178.6361,528.74,179.9" style="stroke:#E7E7E7;stroke-width:1;"/></g><!--link Combos to Combo--><g class="link" data-entity-1="Combos" data-entity-2="Combo" data-source-line="113" data-uid="lnk26" id="link_Combos_Combo"><path codeLine="113" d="M180.14,474.84 C177.66,507.65 174.6229,547.944 171.6129,587.834" fill="none" id="Combos-to-Combo" style="stroke:#E7E7E7;stroke-width:1;stroke-dasharray:7.0,7.0;"/><polygon fill="#E7E7E7" points="170.71,599.8,175.1501,594.118,171.6129,587.834,167.1728,593.516,170.71,599.8" style="stroke:#E7E7E7;stroke-width:1;"/></g><!--link Combo to ICommand--><g class="link" data-entity-1="Combo" data-entity-2="ICommand" data-source-line="114" data-uid="lnk27" id="link_Combo_ICommand"><path codeLine="114" d="M145.13,713.54 C136.47,738.82 127.39,769.28 122.5,797.53 C110.65,866.08 110.1931,935.3845 111.4831,982.7245" fill="none" id="Combo-to-ICommand" style="stroke:#E7E7E7;stroke-width:1;stroke-dasharray:7.0,7.0;"/><polygon fill="#E7E7E7" points="111.81,994.72,115.6451,988.6133,111.4831,982.7245,107.648,988.8312,111.81,994.72" style="stroke:#E7E7E7;stroke-width:1;"/></g><!--link Combo to Attack--><g class="link" data-entity-1="Combo" data-entity-2="Attack" data-source-line="115" data-uid="lnk28" id="link_Combo_Attack"><path codeLine="115" d="M182.15,713.45 C191.74,747.74 200.5583,779.2433 209.1683,810.0333" fill="none" id="Combo-to-Attack" style="stroke:#E7E7E7;stroke-width:1;stroke-dasharray:7.0,7.0;"/><polygon fill="#E7E7E7" points="212.4,821.59,214.6364,814.7345,209.1683,810.0333,206.9319,816.8889,212.4,821.59" style="stroke:#E7E7E7;stroke-width:1;"/></g><!--link Attack to ICommand--><g class="link" data-entity-1="Attack" data-entity-2="ICommand" data-source-line="116" data-uid="lnk29" id="link_Attack_ICommand"><path codeLine="116" d="M197.99,902.98 C180.28,930.54 163.2782,957.0153 145.5582,984.5853" fill="none" id="Attack-to-ICommand" style="stroke:#E7E7E7;stroke-width:1;stroke-dasharray:7.0,7.0;"/><polygon fill="#E7E7E7" points="139.07,994.68,145.679,991.7954,145.5582,984.5853,138.9492,987.4699,139.07,994.68" style="stroke:#E7E7E7;stroke-width:1;"/></g><!--link Attack to IState--><g class="link" data-entity-1="Attack" data-entity-2="IState" data-source-line="117" data-uid="lnk30" id="link_Attack_IState"><path codeLine="117" d="M255.28,902.98 C275.28,927.97 293.7002,951.0023 314.8202,977.3823" fill="none" id="Attack-to-IState" style="stroke:#E7E7E7;stroke-width:1;stroke-dasharray:7.0,7.0;"/><polygon fill="#E7E7E7" points="322.32,986.75,321.6926,979.5662,314.8202,977.3823,315.4475,984.5661,322.32,986.75" style="stroke:#E7E7E7;stroke-width:1;"/></g><!--link Transition to IState--><g class="link" data-entity-1="Transition" data-entity-2="IState" data-source-line="118" data-uid="lnk31" id="link_Transition_IState"><path codeLine="118" d="M491.08,927.51 C467.11,947.15 450.4532,960.786 428.0632,979.126" fill="none" id="Transition-to-IState" style="stroke:#E7E7E7;stroke-width:1;stroke-dasharray:7.0,7.0;"/><polygon fill="#E7E7E7" points="418.78,986.73,425.9563,986.0224,428.0632,979.126,420.8869,979.8336,418.78,986.73" style="stroke:#E7E7E7;stroke-width:1;"/></g><!--link StateMachine to Transition--><g class="link" data-entity-1="StateMachine" data-entity-2="Transition" data-source-line="119" data-uid="lnk32" id="link_StateMachine_Transition"><path codeLine="119" d="M476.75,737.74 C491.55,757.46 500.0092,768.7006 514.1492,787.5506" fill="none" id="StateMachine-to-Transition" style="stroke:#E7E7E7;stroke-width:1;stroke-dasharray:7.0,7.0;"/><polygon fill="#E7E7E7" points="521.35,797.15,520.9494,789.95,514.1492,787.5506,514.5498,794.7506,521.35,797.15" style="stroke:#E7E7E7;stroke-width:1;"/></g><!--link StateMachine to IState--><g class="link" data-entity-1="StateMachine" data-entity-2="IState" data-source-line="120" data-uid="lnk33" id="link_StateMachine_IState"><path codeLine="120" d="M404.56,737.9 C393.33,813.48 378.6618,912.19 369.3718,974.78" fill="none" id="StateMachine-to-IState" style="stroke:#E7E7E7;stroke-width:1;stroke-dasharray:7.0,7.0;"/><polygon fill="#E7E7E7" points="367.61,986.65,372.4476,981.3023,369.3718,974.78,364.5343,980.1277,367.61,986.65" style="stroke:#E7E7E7;stroke-width:1;"/></g><!--SRC=[XLNRRjim37ttLmZOYxFM-G470ReqQmCiAx1a7w18IYBKbWP9ILiK-_TH5-jYTriUREkGF3gYI8OBmzGH4uOsAzdtMD3glRgvIauHUsNaObYzsHbi6DBsEMkhcsCdiK4FpAoaxAXy4NlUitfM_Qugqc6jKI1wvDf8zGPy3I07gH6nhm2t4TMMoNu1Dt8xOqeTKhkd3vj5wmy64O6bTl0W7QtEZ3n_bSf7Worg-YvLZpjsPmmcp-cakMPGOBL-0-Q5Moxzphf58p_hfetYueG4xbaRWZpv4c7tXkCqKTZQvn8WBWoY_IcJviE0CqzqMyLOuj-v2kUunUJC1RDYK0Wb5wMOC3lFq20dozj0LjUvBnqjUuM5vePBePV8f4LCzPFu-Oj2I9soVqUfOvcKnN0vlRooVtdiNhWXv-2X2myu7pv0OZ4nw0lMdcQnNy8HFw5zSMh8HlIezvuXc81e8Zu0Zv17rlc4r-C4pu0p-ArjLtZk5Bn-vIPY89Mdrd4mgFpRll_bo-usNKf-iqSb-tYj0JCo8hitRLW_Fru4MHoWBMtf2kfORE83fnHrvBaTmc-Jgxia6-uRQJNWfK3RzlVGzbiiy8afz5uX-3L-B1YO1Ie7I1WIznU5tQ6ipGyOs5x58L9xTnhSPfbVI6TmO9t1Tk843oTtevz49CecqGDqPv09oSphfwYOjXgVYPHhwv3FjA5aXbc6u0gSrCjmyrc-DhHZGu6afkTgWctb5KPA1iSAHqspJ24bd4ULbhHnbWSqdtykvqVi0nlpuPmS7TuoX7cPDfpGZlSSaNnWBr9UXN-7k9a7t7gJ2GjG6AB-LJhbc4z7Qh4SBSh3ubadJcm-vWy0]--></g></svg>