<svg xmlns="http://www.w3.org/2000/svg" xmlns:xlink="http://www.w3.org/1999/xlink" contentStyleType="text/css" data-diagram-type="CLASS" height="1309px" preserveAspectRatio="none" style="width:793px;height:1309px;background:#1B1B1B;" version="1.1" viewBox="0 0 793 1309" width="793px" zoomAndPan="magnify"><defs/><g><rect fill="#1B1B1B" height="1309" style="stroke:none;stroke-width:1;" width="793" x="0" y="0"/><!--class ICommand--><g class="entity" data-entity="ICommand" data-source-line="1" data-uid="ent0002" id="entity_ICommand"><rect fill="#313139" height="64.2969" rx="2.5" ry="2.5" style="stroke:#E7E7E7;stroke-width:0.5;" width="131.9023" x="90.62" y="1081.72"/><ellipse cx="116.3383" cy="1097.72" fill="#352866" rx="11" ry="11" style="stroke:#E7E7E7;stroke-width:1;"/><path d="M112.2601,1093.4856 L112.2601,1091.3294 L119.6508,1091.3294 L119.6508,1093.4856 L117.182,1093.4856 L117.182,1101.5638 L119.6508,1101.5638 L119.6508,1103.72 L112.2601,1103.72 L112.2601,1101.5638 L114.7289,1101.5638 L114.7289,1093.4856 L112.2601,1093.4856 Z " fill="#FFFFFF"/><text fill="#FFFFFF" font-family="sans-serif" font-size="14" font-style="italic" lengthAdjust="spacing" textLength="76.084" x="132.7201" y="1102.5667">ICommand</text><line style="stroke:#E7E7E7;stroke-width:0.5;" x1="91.62" x2="221.5223" y1="1113.72" y2="1113.72"/><line style="stroke:#E7E7E7;stroke-width:0.5;" x1="91.62" x2="221.5223" y1="1121.72" y2="1121.72"/><ellipse cx="101.62" cy="1135.3684" fill="#84BE84" rx="3" ry="3" style="stroke:#038048;stroke-width:1;"/><text fill="#FFFFFF" font-family="sans-serif" font-size="14" lengthAdjust="spacing" textLength="105.9023" x="110.62" y="1138.7151">void execute();</text></g><!--class IComboRecorder--><g class="entity" data-entity="IComboRecorder" data-source-line="6" data-uid="ent0003" id="entity_IComboRecorder"><rect fill="#313139" height="96.8906" rx="2.5" ry="2.5" style="stroke:#E7E7E7;stroke-width:0.5;" width="252.7344" x="56.21" y="215.78"/><ellipse cx="119.7398" cy="231.78" fill="#352866" rx="11" ry="11" style="stroke:#E7E7E7;stroke-width:1;"/><path d="M115.6617,227.5456 L115.6617,225.3894 L123.0523,225.3894 L123.0523,227.5456 L120.5835,227.5456 L120.5835,235.6237 L123.0523,235.6237 L123.0523,237.78 L115.6617,237.78 L115.6617,235.6237 L118.1304,235.6237 L118.1304,227.5456 L115.6617,227.5456 Z " fill="#FFFFFF"/><text fill="#FFFFFF" font-family="sans-serif" font-size="14" font-style="italic" lengthAdjust="spacing" textLength="117.1748" x="140.2398" y="236.6267">IComboRecorder</text><line style="stroke:#E7E7E7;stroke-width:0.5;" x1="57.21" x2="307.9444" y1="247.78" y2="247.78"/><line style="stroke:#E7E7E7;stroke-width:0.5;" x1="57.21" x2="307.9444" y1="255.78" y2="255.78"/><ellipse cx="67.21" cy="269.4284" fill="#84BE84" rx="3" ry="3" style="stroke:#038048;stroke-width:1;"/><text fill="#FFFFFF" font-family="sans-serif" font-size="14" lengthAdjust="spacing" textLength="226.7344" x="76.21" y="272.7751">void addCombo(Combo combo);</text><ellipse cx="67.21" cy="285.7253" fill="#84BE84" rx="3" ry="3" style="stroke:#038048;stroke-width:1;"/><text fill="#FFFFFF" font-family="sans-serif" font-size="14" lengthAdjust="spacing" textLength="139.2617" x="76.21" y="289.072">void ResetHistory();</text><ellipse cx="67.21" cy="302.0222" fill="#84BE84" rx="3" ry="3" style="stroke:#038048;stroke-width:1;"/><text fill="#FFFFFF" font-family="sans-serif" font-size="14" lengthAdjust="spacing" textLength="211.0459" x="76.21" y="305.3689">ICommand CheckForCombo();</text></g><!--class CommandHistory--><g class="entity" data-entity="CommandHistory" data-source-line="13" data-uid="ent0004" id="entity_CommandHistory"><rect fill="#313139" height="80.5938" rx="2.5" ry="2.5" style="stroke:#E7E7E7;stroke-width:0.5;" width="189.0508" x="88.05" y="372.68"/><ellipse cx="118.9301" cy="388.68" fill="#2E5233" rx="11" ry="11" style="stroke:#E7E7E7;stroke-width:1;"/><path d="M121.8988,394.3206 Q121.3207,394.6175 120.6801,394.7581 Q120.0395,394.9144 119.3363,394.9144 Q116.8363,394.9144 115.5082,393.2738 Q114.1957,391.6175 114.1957,388.4925 Q114.1957,385.3675 115.5082,383.7113 Q116.8363,382.055 119.3363,382.055 Q120.0395,382.055 120.6801,382.2113 Q121.3363,382.3675 121.8988,382.6644 L121.8988,385.3831 Q121.2738,384.805 120.6801,384.5394 Q120.0863,384.2581 119.4613,384.2581 Q118.1176,384.2581 117.4301,385.3363 Q116.7426,386.3988 116.7426,388.4925 Q116.7426,390.5863 117.4301,391.6644 Q118.1176,392.7269 119.4613,392.7269 Q120.0863,392.7269 120.6801,392.4613 Q121.2738,392.18 121.8988,391.6019 L121.8988,394.3206 Z " fill="#FFFFFF"/><text fill="#FFFFFF" font-family="sans-serif" font-size="14" lengthAdjust="spacing" textLength="121.7617" x="136.459" y="393.5267">CommandHistory</text><line style="stroke:#E7E7E7;stroke-width:0.5;" x1="89.05" x2="276.1008" y1="404.68" y2="404.68"/><rect fill="none" height="6" style="stroke:#C82930;stroke-width:1;" width="6" x="96.05" y="415.3284"/><text fill="#FFFFFF" font-family="sans-serif" font-size="14" lengthAdjust="spacing" textLength="163.0508" x="108.05" y="421.6751">Combos comboHistory;</text><rect fill="none" height="6" style="stroke:#C82930;stroke-width:1;" width="6" x="96.05" y="431.6253"/><text fill="#FFFFFF" font-family="sans-serif" font-size="14" lengthAdjust="spacing" textLength="144.0127" x="108.05" y="437.972">Combos setCombos;</text><line style="stroke:#E7E7E7;stroke-width:0.5;" x1="89.05" x2="276.1008" y1="445.2738" y2="445.2738"/></g><!--class NormaleAttackCommand--><g class="entity" data-entity="NormaleAttackCommand" data-source-line="19" data-uid="ent0005" id="entity_NormaleAttackCommand"><rect fill="#313139" height="80.5938" rx="2.5" ry="2.5" style="stroke:#E7E7E7;stroke-width:0.5;" width="299.1504" x="7" y="1222.32"/><ellipse cx="64.1211" cy="1238.32" fill="#2E5233" rx="11" ry="11" style="stroke:#E7E7E7;stroke-width:1;"/><path d="M67.0898,1243.9606 Q66.5117,1244.2575 65.8711,1244.3981 Q65.2305,1244.5544 64.5273,1244.5544 Q62.0273,1244.5544 60.6992,1242.9138 Q59.3867,1241.2575 59.3867,1238.1325 Q59.3867,1235.0075 60.6992,1233.3513 Q62.0273,1231.695 64.5273,1231.695 Q65.2305,1231.695 65.8711,1231.8513 Q66.5273,1232.0075 67.0898,1232.3044 L67.0898,1235.0231 Q66.4648,1234.445 65.8711,1234.1794 Q65.2773,1233.8981 64.6523,1233.8981 Q63.3086,1233.8981 62.6211,1234.9763 Q61.9336,1236.0388 61.9336,1238.1325 Q61.9336,1240.2263 62.6211,1241.3044 Q63.3086,1242.3669 64.6523,1242.3669 Q65.2773,1242.3669 65.8711,1242.1013 Q66.4648,1241.82 67.0898,1241.2419 L67.0898,1243.9606 Z " fill="#FFFFFF"/><text fill="#FFFFFF" font-family="sans-serif" font-size="14" lengthAdjust="spacing" textLength="176.4082" x="84.6211" y="1243.1667">NormaleAttackCommand</text><line style="stroke:#E7E7E7;stroke-width:0.5;" x1="8" x2="305.1504" y1="1254.32" y2="1254.32"/><rect fill="none" height="6" style="stroke:#C82930;stroke-width:1;" width="6" x="15" y="1264.9684"/><text fill="#FFFFFF" font-family="sans-serif" font-size="14" lengthAdjust="spacing" textLength="138.4688" x="27" y="1271.3151">IState currentState;</text><line style="stroke:#E7E7E7;stroke-width:0.5;" x1="8" x2="305.1504" y1="1278.6169" y2="1278.6169"/><ellipse cx="18" cy="1292.2653" fill="#84BE84" rx="3" ry="3" style="stroke:#038048;stroke-width:1;"/><text fill="#FFFFFF" font-family="sans-serif" font-size="14" lengthAdjust="spacing" textLength="273.1504" x="27" y="1295.612">NormaleAttackCommand(IState state);</text></g><!--class Combos--><g class="entity" data-entity="Combos" data-source-line="25" data-uid="ent0006" id="entity_Combos"><rect fill="#313139" height="64.2969" rx="2.5" ry="2.5" style="stroke:#E7E7E7;stroke-width:0.5;" width="187.1777" x="88.99" y="521.42"/><ellipse cx="149.9666" cy="537.42" fill="#2E5233" rx="11" ry="11" style="stroke:#E7E7E7;stroke-width:1;"/><path d="M152.9353,543.0606 Q152.3572,543.3575 151.7166,543.4981 Q151.0759,543.6544 150.3728,543.6544 Q147.8728,543.6544 146.5447,542.0138 Q145.2322,540.3575 145.2322,537.2325 Q145.2322,534.1075 146.5447,532.4513 Q147.8728,530.795 150.3728,530.795 Q151.0759,530.795 151.7166,530.9513 Q152.3728,531.1075 152.9353,531.4044 L152.9353,534.1231 Q152.3103,533.545 151.7166,533.2794 Q151.1228,532.9981 150.4978,532.9981 Q149.1541,532.9981 148.4666,534.0763 Q147.7791,535.1388 147.7791,537.2325 Q147.7791,539.3263 148.4666,540.4044 Q149.1541,541.4669 150.4978,541.4669 Q151.1228,541.4669 151.7166,541.2013 Q152.3103,540.92 152.9353,540.3419 L152.9353,543.0606 Z " fill="#FFFFFF"/><text fill="#FFFFFF" font-family="sans-serif" font-size="14" lengthAdjust="spacing" textLength="56.7246" x="170.4666" y="542.2667">Combos</text><line style="stroke:#E7E7E7;stroke-width:0.5;" x1="89.99" x2="275.1677" y1="553.42" y2="553.42"/><rect fill="none" height="6" style="stroke:#C82930;stroke-width:1;" width="6" x="96.99" y="564.0684"/><text fill="#FFFFFF" font-family="sans-serif" font-size="14" lengthAdjust="spacing" textLength="161.1777" x="108.99" y="570.4151">List&lt;Combo&gt; combos;</text><line style="stroke:#E7E7E7;stroke-width:0.5;" x1="89.99" x2="275.1677" y1="577.7169" y2="577.7169"/></g><!--class Combo--><g class="entity" data-entity="Combo" data-source-line="30" data-uid="ent0007" id="entity_Combo"><rect fill="#313139" height="113.1875" rx="2.5" ry="2.5" style="stroke:#E7E7E7;stroke-width:0.5;" width="179.2754" x="92.94" y="678.31"/><ellipse cx="153.6124" cy="694.31" fill="#2E5233" rx="11" ry="11" style="stroke:#E7E7E7;stroke-width:1;"/><path d="M156.5811,699.9506 Q156.003,700.2475 155.3624,700.3881 Q154.7217,700.5444 154.0186,700.5444 Q151.5186,700.5444 150.1905,698.9038 Q148.878,697.2475 148.878,694.1225 Q148.878,690.9975 150.1905,689.3413 Q151.5186,687.685 154.0186,687.685 Q154.7217,687.685 155.3624,687.8413 Q156.0186,687.9975 156.5811,688.2944 L156.5811,691.0131 Q155.9561,690.435 155.3624,690.1694 Q154.7686,689.8881 154.1436,689.8881 Q152.7999,689.8881 152.1124,690.9663 Q151.4249,692.0288 151.4249,694.1225 Q151.4249,696.2163 152.1124,697.2944 Q152.7999,698.3569 154.1436,698.3569 Q154.7686,698.3569 155.3624,698.0913 Q155.9561,697.81 156.5811,697.2319 L156.5811,699.9506 Z " fill="#FFFFFF"/><text fill="#FFFFFF" font-family="sans-serif" font-size="14" lengthAdjust="spacing" textLength="49.4307" x="174.1124" y="699.1567">Combo</text><line style="stroke:#E7E7E7;stroke-width:0.5;" x1="93.94" x2="271.2154" y1="710.31" y2="710.31"/><rect fill="none" height="6" style="stroke:#C82930;stroke-width:1;" width="6" x="100.94" y="720.9584"/><text fill="#FFFFFF" font-family="sans-serif" font-size="14" lengthAdjust="spacing" textLength="89.0586" x="112.94" y="727.3051">string name;</text><rect fill="none" height="6" style="stroke:#C82930;stroke-width:1;" width="6" x="100.94" y="737.2553"/><text fill="#FFFFFF" font-family="sans-serif" font-size="14" lengthAdjust="spacing" textLength="153.2754" x="112.94" y="743.602">List&lt;Attack&gt; attacks;</text><rect fill="none" height="6" style="stroke:#C82930;stroke-width:1;" width="6" x="100.94" y="753.5522"/><text fill="#FFFFFF" font-family="sans-serif" font-size="14" lengthAdjust="spacing" textLength="141.668" x="112.94" y="759.8989">ICommand Execute;</text><rect fill="none" height="6" style="stroke:#C82930;stroke-width:1;" width="6" x="100.94" y="769.8491"/><text fill="#FFFFFF" font-family="sans-serif" font-size="14" lengthAdjust="spacing" textLength="58.8301" x="112.94" y="776.1957">int dmg;</text><line style="stroke:#E7E7E7;stroke-width:0.5;" x1="93.94" x2="271.2154" y1="783.4975" y2="783.4975"/></g><!--class Attack--><g class="entity" data-entity="Attack" data-source-line="38" data-uid="ent0008" id="entity_Attack"><rect fill="#313139" height="80.5938" rx="2.5" ry="2.5" style="stroke:#E7E7E7;stroke-width:0.5;" width="167.1279" x="162.01" y="900.39"/><ellipse cx="218.8542" cy="916.39" fill="#2E5233" rx="11" ry="11" style="stroke:#E7E7E7;stroke-width:1;"/><path d="M221.823,922.0306 Q221.2449,922.3275 220.6042,922.4681 Q219.9636,922.6244 219.2605,922.6244 Q216.7605,922.6244 215.4324,920.9838 Q214.1199,919.3275 214.1199,916.2025 Q214.1199,913.0775 215.4324,911.4213 Q216.7605,909.765 219.2605,909.765 Q219.9636,909.765 220.6042,909.9213 Q221.2605,910.0775 221.823,910.3744 L221.823,913.0931 Q221.198,912.515 220.6042,912.2494 Q220.0105,911.9681 219.3855,911.9681 Q218.0417,911.9681 217.3542,913.0463 Q216.6667,914.1088 216.6667,916.2025 Q216.6667,918.2963 217.3542,919.3744 Q218.0417,920.4369 219.3855,920.4369 Q220.0105,920.4369 220.6042,920.1713 Q221.198,919.89 221.823,919.3119 L221.823,922.0306 Z " fill="#FFFFFF"/><text fill="#FFFFFF" font-family="sans-serif" font-size="14" lengthAdjust="spacing" textLength="44.9395" x="239.3542" y="921.2367">Attack</text><line style="stroke:#E7E7E7;stroke-width:0.5;" x1="163.01" x2="328.1379" y1="932.39" y2="932.39"/><text fill="#FFFFFF" font-family="sans-serif" font-size="14" lengthAdjust="spacing" textLength="85.8184" x="168.01" y="949.3851">IState state;</text><text fill="#FFFFFF" font-family="sans-serif" font-size="14" lengthAdjust="spacing" textLength="155.1279" x="168.01" y="965.682">ICommand command;</text><line style="stroke:#E7E7E7;stroke-width:0.5;" x1="163.01" x2="328.1379" y1="972.9838" y2="972.9838"/></g><!--class StateMachine--><g class="entity" data-entity="StateMachine" data-source-line="44" data-uid="ent0009" id="entity_StateMachine"><rect fill="#313139" height="162.0781" rx="2.5" ry="2.5" style="stroke:#E7E7E7;stroke-width:0.5;" width="251.3193" x="318.92" y="653.86"/><ellipse cx="392.4986" cy="669.86" fill="#2E5233" rx="11" ry="11" style="stroke:#E7E7E7;stroke-width:1;"/><path d="M395.4674,675.5006 Q394.8892,675.7975 394.2486,675.9381 Q393.608,676.0944 392.9049,676.0944 Q390.4049,676.0944 389.0767,674.4538 Q387.7642,672.7975 387.7642,669.6725 Q387.7642,666.5475 389.0767,664.8913 Q390.4049,663.235 392.9049,663.235 Q393.608,663.235 394.2486,663.3913 Q394.9049,663.5475 395.4674,663.8444 L395.4674,666.5631 Q394.8424,665.985 394.2486,665.7194 Q393.6549,665.4381 393.0299,665.4381 Q391.6861,665.4381 390.9986,666.5163 Q390.3111,667.5788 390.3111,669.6725 Q390.3111,671.7663 390.9986,672.8444 Q391.6861,673.9069 393.0299,673.9069 Q393.6549,673.9069 394.2486,673.6413 Q394.8424,673.36 395.4674,672.7819 L395.4674,675.5006 Z " fill="#FFFFFF"/><text fill="#FFFFFF" font-family="sans-serif" font-size="14" lengthAdjust="spacing" textLength="95.6621" x="412.9986" y="674.7067">StateMachine</text><line style="stroke:#E7E7E7;stroke-width:0.5;" x1="319.92" x2="569.2393" y1="685.86" y2="685.86"/><rect fill="none" height="6" style="stroke:#C82930;stroke-width:1;" width="6" x="326.92" y="696.5084"/><text fill="#FFFFFF" font-family="sans-serif" font-size="14" lengthAdjust="spacing" textLength="138.4688" x="338.92" y="702.8551">IState currentState;</text><rect fill="none" height="6" style="stroke:#C82930;stroke-width:1;" width="6" x="326.92" y="712.8053"/><text fill="#FFFFFF" font-family="sans-serif" font-size="14" lengthAdjust="spacing" textLength="158.9971" x="338.92" y="719.152">List&lt;IState&gt; allStates;</text><rect fill="none" height="6" style="stroke:#C82930;stroke-width:1;" width="6" x="326.92" y="729.1022"/><text fill="#FFFFFF" font-family="sans-serif" font-size="14" lengthAdjust="spacing" textLength="208.1475" x="338.92" y="735.4489">List&lt;Transitions&gt; transitions;</text><line style="stroke:#E7E7E7;stroke-width:0.5;" x1="319.92" x2="569.2393" y1="742.7506" y2="742.7506"/><ellipse cx="329.92" cy="756.3991" fill="#84BE84" rx="3" ry="3" style="stroke:#038048;stroke-width:1;"/><text fill="#FFFFFF" font-family="sans-serif" font-size="14" lengthAdjust="spacing" textLength="120.3125" x="338.92" y="759.7457">void OnUpdate();</text><ellipse cx="329.92" cy="772.6959" fill="#84BE84" rx="3" ry="3" style="stroke:#038048;stroke-width:1;"/><text fill="#FFFFFF" font-family="sans-serif" font-size="14" lengthAdjust="spacing" textLength="195.2275" x="338.92" y="776.0426">void AddState(IState state);</text><ellipse cx="329.92" cy="788.9928" fill="#84BE84" rx="3" ry="3" style="stroke:#038048;stroke-width:1;"/><text fill="#FFFFFF" font-family="sans-serif" font-size="14" lengthAdjust="spacing" textLength="225.3193" x="338.92" y="792.3395">void RemoveState(IState state);</text><ellipse cx="329.92" cy="805.2897" fill="#84BE84" rx="3" ry="3" style="stroke:#038048;stroke-width:1;"/><text fill="#FFFFFF" font-family="sans-serif" font-size="14" lengthAdjust="spacing" textLength="212.5703" x="338.92" y="808.6364">void SwitchState(Istate state);</text></g><!--class BaseState--><g class="entity" data-entity="BaseState" data-source-line="55" data-uid="ent0010" id="entity_BaseState"><rect fill="#313139" height="145.7813" rx="2.5" ry="2.5" style="stroke:#E7E7E7;stroke-width:0.5;" width="447.3535" x="237.9" y="10"/><ellipse cx="416.0875" cy="26" fill="#2A5D60" rx="11" ry="11" style="stroke:#E7E7E7;stroke-width:1;"/><path d="M416.1969,21.3438 L415.0406,26.4219 L417.3688,26.4219 L416.1969,21.3438 Z M414.7125,19.1094 L417.6969,19.1094 L421.0563,31.5 L418.6031,31.5 L417.8375,28.4375 L414.5563,28.4375 L413.8063,31.5 L411.3688,31.5 L414.7125,19.1094 Z " fill="#FFFFFF"/><text fill="#FFFFFF" font-family="sans-serif" font-size="14" font-style="italic" lengthAdjust="spacing" textLength="71.1484" x="436.5875" y="30.8467">BaseState</text><rect fill="#FFFFFF" height="15.9688" style="stroke:#E7E7E7;stroke-width:1;stroke-dasharray:2.0,2.0;" width="9.3301" x="678.9234" y="7"/><text fill="#000000" font-family="sans-serif" font-size="12" font-style="italic" lengthAdjust="spacing" textLength="7.3301" x="679.9234" y="19.1387">T</text><line style="stroke:#E7E7E7;stroke-width:0.5;" x1="238.9" x2="684.2535" y1="42" y2="42"/><polygon fill="none" points="248.9,50.6484,252.9,54.6484,248.9,58.6484,244.9,54.6484" style="stroke:#B38D22;stroke-width:1;"/><text fill="#FFFFFF" font-family="sans-serif" font-size="14" lengthAdjust="spacing" textLength="113.3809" x="257.9" y="58.9951">T StateMachine;</text><polygon fill="none" points="248.9,66.9453,252.9,70.9453,248.9,74.9453,244.9,70.9453" style="stroke:#B38D22;stroke-width:1;"/><text fill="#FFFFFF" font-family="sans-serif" font-size="14" lengthAdjust="spacing" textLength="232.5928" x="257.9" y="75.292">IComboRecorder comboRecorder</text><line style="stroke:#E7E7E7;stroke-width:0.5;" x1="238.9" x2="684.2535" y1="82.5938" y2="82.5938"/><text fill="#FFFFFF" font-family="sans-serif" font-size="14" lengthAdjust="spacing" textLength="435.3535" x="243.9" y="99.5889">BaseState(T stateMachine, IComboRecorder comboRecorder);</text><text fill="#FFFFFF" font-family="sans-serif" font-size="14" lengthAdjust="spacing" textLength="120.3125" x="243.9" y="115.8857">void OnUpdate();</text><text fill="#FFFFFF" font-family="sans-serif" font-size="14" lengthAdjust="spacing" textLength="144.2451" x="243.9" y="132.1826">void OnEnterState();</text><text fill="#FFFFFF" font-family="sans-serif" font-size="14" lengthAdjust="spacing" textLength="133.1777" x="243.9" y="148.4795">void OnExitState();</text></g><!--class IState--><g class="entity" data-entity="IState" data-source-line="65" data-uid="ent0011" id="entity_IState"><rect fill="#313139" height="96.8906" rx="2.5" ry="2.5" style="stroke:#E7E7E7;stroke-width:0.5;" width="156.2451" x="304.45" y="1065.43"/><ellipse cx="357.7293" cy="1081.43" fill="#352866" rx="11" ry="11" style="stroke:#E7E7E7;stroke-width:1;"/><path d="M353.6512,1077.1956 L353.6512,1075.0394 L361.0418,1075.0394 L361.0418,1077.1956 L358.573,1077.1956 L358.573,1085.2738 L361.0418,1085.2738 L361.0418,1087.43 L353.6512,1087.43 L353.6512,1085.2738 L356.1199,1085.2738 L356.1199,1077.1956 L353.6512,1077.1956 Z " fill="#FFFFFF"/><text fill="#FFFFFF" font-family="sans-serif" font-size="14" font-style="italic" lengthAdjust="spacing" textLength="41.1865" x="378.2293" y="1086.2767">IState</text><line style="stroke:#E7E7E7;stroke-width:0.5;" x1="305.45" x2="459.6951" y1="1097.43" y2="1097.43"/><line style="stroke:#E7E7E7;stroke-width:0.5;" x1="305.45" x2="459.6951" y1="1105.43" y2="1105.43"/><text fill="#FFFFFF" font-family="sans-serif" font-size="14" lengthAdjust="spacing" textLength="120.3125" x="310.45" y="1122.4251">void OnUpdate();</text><text fill="#FFFFFF" font-family="sans-serif" font-size="14" lengthAdjust="spacing" textLength="144.2451" x="310.45" y="1138.722">void OnEnterState();</text><text fill="#FFFFFF" font-family="sans-serif" font-size="14" lengthAdjust="spacing" textLength="133.1777" x="310.45" y="1155.0189">void OnExitState();</text></g><!--class Transition--><g class="entity" data-entity="Transition" data-source-line="72" data-uid="ent0012" id="entity_Transition"><rect fill="#313139" height="129.4844" rx="2.5" ry="2.5" style="stroke:#E7E7E7;stroke-width:0.5;" width="311.0996" x="436.03" y="875.94"/><ellipse cx="552.4494" cy="891.94" fill="#2E5233" rx="11" ry="11" style="stroke:#E7E7E7;stroke-width:1;"/><path d="M555.4182,897.5806 Q554.8401,897.8775 554.1994,898.0181 Q553.5588,898.1744 552.8557,898.1744 Q550.3557,898.1744 549.0276,896.5338 Q547.7151,894.8775 547.7151,891.7525 Q547.7151,888.6275 549.0276,886.9713 Q550.3557,885.315 552.8557,885.315 Q553.5588,885.315 554.1994,885.4713 Q554.8557,885.6275 555.4182,885.9244 L555.4182,888.6431 Q554.7932,888.065 554.1994,887.7994 Q553.6057,887.5181 552.9807,887.5181 Q551.6369,887.5181 550.9494,888.5963 Q550.2619,889.6588 550.2619,891.7525 Q550.2619,893.8463 550.9494,894.9244 Q551.6369,895.9869 552.9807,895.9869 Q553.6057,895.9869 554.1994,895.7213 Q554.7932,895.44 555.4182,894.8619 L555.4182,897.5806 Z " fill="#FFFFFF"/><text fill="#FFFFFF" font-family="sans-serif" font-size="14" lengthAdjust="spacing" textLength="69.7607" x="572.9494" y="896.7867">Transition</text><line style="stroke:#E7E7E7;stroke-width:0.5;" x1="437.03" x2="746.1296" y1="907.94" y2="907.94"/><rect fill="none" height="6" style="stroke:#C82930;stroke-width:1;" width="6" x="444.03" y="918.5884"/><text fill="#FFFFFF" font-family="sans-serif" font-size="14" lengthAdjust="spacing" textLength="120.2988" x="456.03" y="924.9351">IState fromState;</text><rect fill="none" height="6" style="stroke:#C82930;stroke-width:1;" width="6" x="444.03" y="934.8853"/><text fill="#FFFFFF" font-family="sans-serif" font-size="14" lengthAdjust="spacing" textLength="101.4658" x="456.03" y="941.232">IState toState;</text><rect fill="none" height="6" style="stroke:#C82930;stroke-width:1;" width="6" x="444.03" y="951.1822"/><text fill="#FFFFFF" font-family="sans-serif" font-size="14" lengthAdjust="spacing" textLength="214.293" x="456.03" y="957.5289">System.func&lt;bool&gt; condition;</text><line style="stroke:#E7E7E7;stroke-width:0.5;" x1="437.03" x2="746.1296" y1="964.8306" y2="964.8306"/><ellipse cx="447.03" cy="978.4791" fill="#84BE84" rx="3" ry="3" style="stroke:#038048;stroke-width:1;"/><text fill="#FFFFFF" font-family="sans-serif" font-size="14" lengthAdjust="spacing" textLength="285.0996" x="456.03" y="981.8257">Transiton(fromState, toState, condition);</text><ellipse cx="447.03" cy="994.7759" fill="#84BE84" rx="3" ry="3" style="stroke:#038048;stroke-width:1;"/><text fill="#FFFFFF" font-family="sans-serif" font-size="14" lengthAdjust="spacing" textLength="159.8721" x="456.03" y="998.1226">bool CheckCondition();</text></g><!--class GameManager--><g class="entity" data-entity="GameManager" data-source-line="81" data-uid="ent0013" id="entity_GameManager"><rect fill="#313139" height="80.5938" rx="2.5" ry="2.5" style="stroke:#E7E7E7;stroke-width:0.5;" width="210.8984" x="414.13" y="513.27"/><ellipse cx="463.8068" cy="529.27" fill="#2E5233" rx="11" ry="11" style="stroke:#E7E7E7;stroke-width:1;"/><path d="M466.7755,534.9106 Q466.1974,535.2075 465.5568,535.3481 Q464.9161,535.5044 464.213,535.5044 Q461.713,535.5044 460.3849,533.8638 Q459.0724,532.2075 459.0724,529.0825 Q459.0724,525.9575 460.3849,524.3013 Q461.713,522.645 464.213,522.645 Q464.9161,522.645 465.5568,522.8013 Q466.213,522.9575 466.7755,523.2544 L466.7755,525.9731 Q466.1505,525.395 465.5568,525.1294 Q464.963,524.8481 464.338,524.8481 Q462.9943,524.8481 462.3068,525.9263 Q461.6193,526.9888 461.6193,529.0825 Q461.6193,531.1763 462.3068,532.2544 Q462.9943,533.3169 464.338,533.3169 Q464.963,533.3169 465.5568,533.0513 Q466.1505,532.77 466.7755,532.1919 L466.7755,534.9106 Z " fill="#FFFFFF"/><text fill="#FFFFFF" font-family="sans-serif" font-size="14" lengthAdjust="spacing" textLength="103.0449" x="484.3068" y="534.1167">GameManager</text><line style="stroke:#E7E7E7;stroke-width:0.5;" x1="415.13" x2="624.0284" y1="545.27" y2="545.27"/><text fill="#FFFFFF" font-family="sans-serif" font-size="14" lengthAdjust="spacing" textLength="198.8984" x="420.13" y="562.2651">StateMachine stateMachine;</text><line style="stroke:#E7E7E7;stroke-width:0.5;" x1="415.13" x2="624.0284" y1="569.5669" y2="569.5669"/><rect fill="#F24D5C" height="6" style="stroke:#C82930;stroke-width:1;" width="6" x="422.13" y="580.2153"/><text fill="#FFFFFF" font-family="sans-serif" font-size="14" lengthAdjust="spacing" textLength="99.0459" x="434.13" y="586.562">void update();</text></g><!--class IdleState--><g class="entity" data-entity="IdleState" data-source-line="87" data-uid="ent0014" id="entity_IdleState"><rect fill="#313139" height="48" rx="2.5" ry="2.5" style="stroke:#E7E7E7;stroke-width:0.5;" width="94.5762" x="414.29" y="240.23"/><ellipse cx="429.29" cy="256.23" fill="#2E5233" rx="11" ry="11" style="stroke:#E7E7E7;stroke-width:1;"/><path d="M432.2588,261.8706 Q431.6806,262.1675 431.04,262.3081 Q430.3994,262.4644 429.6963,262.4644 Q427.1963,262.4644 425.8681,260.8238 Q424.5556,259.1675 424.5556,256.0425 Q424.5556,252.9175 425.8681,251.2613 Q427.1963,249.605 429.6963,249.605 Q430.3994,249.605 431.04,249.7613 Q431.6963,249.9175 432.2588,250.2144 L432.2588,252.9331 Q431.6338,252.355 431.04,252.0894 Q430.4463,251.8081 429.8213,251.8081 Q428.4775,251.8081 427.79,252.8863 Q427.1025,253.9488 427.1025,256.0425 Q427.1025,258.1363 427.79,259.2144 Q428.4775,260.2769 429.8213,260.2769 Q430.4463,260.2769 431.04,260.0113 Q431.6338,259.73 432.2588,259.1519 L432.2588,261.8706 Z " fill="#FFFFFF"/><text fill="#FFFFFF" font-family="sans-serif" font-size="14" lengthAdjust="spacing" textLength="62.5762" x="443.29" y="261.0767">IdleState</text><line style="stroke:#E7E7E7;stroke-width:0.5;" x1="415.29" x2="507.8662" y1="272.23" y2="272.23"/><line style="stroke:#E7E7E7;stroke-width:0.5;" x1="415.29" x2="507.8662" y1="280.23" y2="280.23"/></g><!--class AirState--><g class="entity" data-entity="AirState" data-source-line="91" data-uid="ent0015" id="entity_AirState"><rect fill="#313139" height="48" rx="2.5" ry="2.5" style="stroke:#E7E7E7;stroke-width:0.5;" width="88.2803" x="543.44" y="240.23"/><ellipse cx="558.44" cy="256.23" fill="#2E5233" rx="11" ry="11" style="stroke:#E7E7E7;stroke-width:1;"/><path d="M561.4088,261.8706 Q560.8306,262.1675 560.19,262.3081 Q559.5494,262.4644 558.8463,262.4644 Q556.3463,262.4644 555.0181,260.8238 Q553.7056,259.1675 553.7056,256.0425 Q553.7056,252.9175 555.0181,251.2613 Q556.3463,249.605 558.8463,249.605 Q559.5494,249.605 560.19,249.7613 Q560.8463,249.9175 561.4088,250.2144 L561.4088,252.9331 Q560.7838,252.355 560.19,252.0894 Q559.5963,251.8081 558.9713,251.8081 Q557.6275,251.8081 556.94,252.8863 Q556.2525,253.9488 556.2525,256.0425 Q556.2525,258.1363 556.94,259.2144 Q557.6275,260.2769 558.9713,260.2769 Q559.5963,260.2769 560.19,260.0113 Q560.7838,259.73 561.4088,259.1519 L561.4088,261.8706 Z " fill="#FFFFFF"/><text fill="#FFFFFF" font-family="sans-serif" font-size="14" lengthAdjust="spacing" textLength="56.2803" x="572.44" y="261.0767">AirState</text><line style="stroke:#E7E7E7;stroke-width:0.5;" x1="544.44" x2="630.7203" y1="272.23" y2="272.23"/><line style="stroke:#E7E7E7;stroke-width:0.5;" x1="544.44" x2="630.7203" y1="280.23" y2="280.23"/></g><!--class MovingState--><g class="entity" data-entity="MovingState" data-source-line="95" data-uid="ent0016" id="entity_MovingState"><rect fill="#313139" height="48" rx="2.5" ry="2.5" style="stroke:#E7E7E7;stroke-width:0.5;" width="119.6367" x="666.76" y="240.23"/><ellipse cx="681.76" cy="256.23" fill="#2E5233" rx="11" ry="11" style="stroke:#E7E7E7;stroke-width:1;"/><path d="M684.7288,261.8706 Q684.1506,262.1675 683.51,262.3081 Q682.8694,262.4644 682.1663,262.4644 Q679.6663,262.4644 678.3381,260.8238 Q677.0256,259.1675 677.0256,256.0425 Q677.0256,252.9175 678.3381,251.2613 Q679.6663,249.605 682.1663,249.605 Q682.8694,249.605 683.51,249.7613 Q684.1663,249.9175 684.7288,250.2144 L684.7288,252.9331 Q684.1038,252.355 683.51,252.0894 Q682.9163,251.8081 682.2913,251.8081 Q680.9475,251.8081 680.26,252.8863 Q679.5725,253.9488 679.5725,256.0425 Q679.5725,258.1363 680.26,259.2144 Q680.9475,260.2769 682.2913,260.2769 Q682.9163,260.2769 683.51,260.0113 Q684.1038,259.73 684.7288,259.1519 L684.7288,261.8706 Z " fill="#FFFFFF"/><text fill="#FFFFFF" font-family="sans-serif" font-size="14" lengthAdjust="spacing" textLength="87.6367" x="695.76" y="261.0767">MovingState</text><line style="stroke:#E7E7E7;stroke-width:0.5;" x1="667.76" x2="785.3967" y1="272.23" y2="272.23"/><line style="stroke:#E7E7E7;stroke-width:0.5;" x1="667.76" x2="785.3967" y1="280.23" y2="280.23"/></g><!--link BaseState to AirState--><g class="link" data-entity-1="BaseState" data-entity-2="AirState" data-source-line="99" data-uid="lnk17" id="link_BaseState_AirState"><path codeLine="99" d="M512.28,156.06 C533.34,186.04 552.8604,213.8208 567.8204,235.1108" fill="none" id="BaseState-to-AirState" style="stroke:#E7E7E7;stroke-width:1;"/><polygon fill="#E7E7E7" points="571.27,240.02,569.3684,230.3565,568.3953,235.929,562.8228,234.9559,571.27,240.02" style="stroke:#E7E7E7;stroke-width:1;"/></g><!--link BaseState to MovingState--><g class="link" data-entity-1="BaseState" data-entity-2="MovingState" data-source-line="100" data-uid="lnk18" id="link_BaseState_MovingState"><path codeLine="100" d="M568.22,156.06 C612.37,185.94 655.5411,215.1569 687.0111,236.4569" fill="none" id="BaseState-to-MovingState" style="stroke:#E7E7E7;stroke-width:1;"/><polygon fill="#E7E7E7" points="691.98,239.82,686.7688,231.4628,687.8393,237.0174,682.2846,238.0879,691.98,239.82" style="stroke:#E7E7E7;stroke-width:1;"/></g><!--link BaseState to IdleState--><g class="link" data-entity-1="BaseState" data-entity-2="IdleState" data-source-line="101" data-uid="lnk19" id="link_BaseState_IdleState"><path codeLine="101" d="M461.58,156.06 C461.58,186.04 461.58,212.73 461.58,234.02" fill="none" id="BaseState-to-IdleState" style="stroke:#E7E7E7;stroke-width:1;"/><polygon fill="#E7E7E7" points="461.58,240.02,465.58,231.02,461.58,235.02,457.58,231.02,461.58,240.02" style="stroke:#E7E7E7;stroke-width:1;"/></g><!--link GameManager to StateMachine--><g class="link" data-entity-1="GameManager" data-entity-2="StateMachine" data-source-line="102" data-uid="lnk20" id="link_GameManager_StateMachine"><path codeLine="102" d="M503.12,593.92 C495.79,611.45 491.4998,621.6991 482.8598,642.3591" fill="none" id="GameManager-to-StateMachine" style="stroke:#E7E7E7;stroke-width:1;stroke-dasharray:7.0,7.0;"/><polygon fill="#E7E7E7" points="478.23,653.43,484.2352,649.4378,482.8598,642.3591,476.8546,646.3513,478.23,653.43" style="stroke:#E7E7E7;stroke-width:1;"/></g><!--link ICommand to NormaleAttackCommand--><g class="link" data-entity-1="ICommand" data-entity-2="NormaleAttackCommand" data-source-line="103" data-uid="lnk21" id="link_ICommand_NormaleAttackCommand"><path codeLine="103" d="M156.58,1146.35 C156.58,1168.5 156.58,1192.31 156.58,1216.06" fill="none" id="ICommand-to-NormaleAttackCommand" style="stroke:#E7E7E7;stroke-width:1;"/><polygon fill="#E7E7E7" points="156.58,1222.06,160.58,1213.06,156.58,1217.06,152.58,1213.06,156.58,1222.06" style="stroke:#E7E7E7;stroke-width:1;"/></g><!--link CommandHistory to Combos--><g class="link" data-entity-1="CommandHistory" data-entity-2="Combos" data-source-line="104" data-uid="lnk22" id="link_CommandHistory_Combos"><path codeLine="104" d="M182.58,453.69 C182.58,475.12 182.58,489.21 182.58,509.21" fill="none" id="CommandHistory-to-Combos" style="stroke:#E7E7E7;stroke-width:1;stroke-dasharray:7.0,7.0;"/><polygon fill="#E7E7E7" points="182.58,521.21,186.58,515.21,182.58,509.21,178.58,515.21,182.58,521.21" style="stroke:#E7E7E7;stroke-width:1;"/></g><!--link IComboRecorder to CommandHistory--><g class="link" data-entity-1="IComboRecorder" data-entity-2="CommandHistory" data-source-line="105" data-uid="lnk23" id="link_IComboRecorder_CommandHistory"><path codeLine="105" d="M182.58,312.87 C182.58,332.12 182.58,348.07 182.58,366.42" fill="none" id="IComboRecorder-to-CommandHistory" style="stroke:#E7E7E7;stroke-width:1;"/><polygon fill="#E7E7E7" points="182.58,372.42,186.58,363.42,182.58,367.42,178.58,363.42,182.58,372.42" style="stroke:#E7E7E7;stroke-width:1;"/></g><!--link BaseState to StateMachine--><g class="link" data-entity-1="BaseState" data-entity-2="StateMachine" data-source-line="106" data-uid="lnk24" id="link_BaseState_StateMachine"><path codeLine="106" d="M418.73,155.95 C409.6,174.79 401.3,195.52 396.58,215.78 C358.44,379.43 368.96,428.11 396.58,593.86 C399.87,613.64 401.8259,622.9723 408.2259,642.2323" fill="none" id="BaseState-to-StateMachine" style="stroke:#E7E7E7;stroke-width:1;stroke-dasharray:7.0,7.0;"/><polygon fill="#E7E7E7" points="412.01,653.62,413.9139,646.6648,408.2259,642.2323,406.322,649.1875,412.01,653.62" style="stroke:#E7E7E7;stroke-width:1;"/></g><!--link BaseState to IComboRecorder--><g class="link" data-entity-1="BaseState" data-entity-2="IComboRecorder" data-source-line="107" data-uid="lnk25" id="link_BaseState_IComboRecorder"><path codeLine="107" d="M349.3,156.06 C318.26,176.01 295.444,190.6807 267.134,208.8807" fill="none" id="BaseState-to-IComboRecorder" style="stroke:#E7E7E7;stroke-width:1;stroke-dasharray:7.0,7.0;"/><polygon fill="#E7E7E7" points="257.04,215.37,264.2501,215.49,267.134,208.8807,259.9239,208.7607,257.04,215.37" style="stroke:#E7E7E7;stroke-width:1;"/></g><!--link Combos to Combo--><g class="link" data-entity-1="Combos" data-entity-2="Combo" data-source-line="108" data-uid="lnk26" id="link_Combos_Combo"><path codeLine="108" d="M182.58,585.8 C182.58,611.19 182.58,635.65 182.58,666.04" fill="none" id="Combos-to-Combo" style="stroke:#E7E7E7;stroke-width:1;stroke-dasharray:7.0,7.0;"/><polygon fill="#E7E7E7" points="182.58,678.04,186.58,672.04,182.58,666.04,178.58,672.04,182.58,678.04" style="stroke:#E7E7E7;stroke-width:1;"/></g><!--link Combo to ICommand--><g class="link" data-entity-1="Combo" data-entity-2="ICommand" data-source-line="109" data-uid="lnk27" id="link_Combo_ICommand"><path codeLine="109" d="M163.77,791.76 C156.18,817.13 148.34,847.72 144.58,875.94 C136.97,932.99 141.38,947.97 144.58,1005.43 C146,1031.1 147.7872,1048.1709 150.5772,1069.5509" fill="none" id="Combo-to-ICommand" style="stroke:#E7E7E7;stroke-width:1;stroke-dasharray:7.0,7.0;"/><polygon fill="#E7E7E7" points="152.13,1081.45,155.32,1074.9828,150.5772,1069.5509,147.3872,1076.018,152.13,1081.45" style="stroke:#E7E7E7;stroke-width:1;"/></g><!--link Combo to Attack--><g class="link" data-entity-1="Combo" data-entity-2="Attack" data-source-line="110" data-uid="lnk28" id="link_Combo_Attack"><path codeLine="110" d="M199.87,791.86 C210.47,826.14 220.2453,857.7455 229.7653,888.5355" fill="none" id="Combo-to-Attack" style="stroke:#E7E7E7;stroke-width:1;stroke-dasharray:7.0,7.0;"/><polygon fill="#E7E7E7" points="233.31,900,235.3591,893.0862,229.7653,888.5355,227.7161,895.4493,233.31,900" style="stroke:#E7E7E7;stroke-width:1;"/></g><!--link Attack to ICommand--><g class="link" data-entity-1="Attack" data-entity-2="ICommand" data-source-line="111" data-uid="lnk29" id="link_Attack_ICommand"><path codeLine="111" d="M224.93,981.39 C209.12,1011.81 193.1253,1042.5629 178.4853,1070.7229" fill="none" id="Attack-to-ICommand" style="stroke:#E7E7E7;stroke-width:1;stroke-dasharray:7.0,7.0;"/><polygon fill="#E7E7E7" points="172.95,1081.37,179.2667,1077.8915,178.4853,1070.7229,172.1686,1074.2014,172.95,1081.37" style="stroke:#E7E7E7;stroke-width:1;"/></g><!--link Attack to IState--><g class="link" data-entity-1="Attack" data-entity-2="IState" data-source-line="112" data-uid="lnk30" id="link_Attack_IState"><path codeLine="112" d="M277.35,981.39 C297.35,1006.38 315.7841,1029.3992 336.8941,1055.7892" fill="none" id="Attack-to-IState" style="stroke:#E7E7E7;stroke-width:1;stroke-dasharray:7.0,7.0;"/><polygon fill="#E7E7E7" points="344.39,1065.16,343.7656,1057.976,336.8941,1055.7892,337.5185,1062.9732,344.39,1065.16" style="stroke:#E7E7E7;stroke-width:1;"/></g><!--link Transition to IState--><g class="link" data-entity-1="Transition" data-entity-2="IState" data-source-line="113" data-uid="lnk31" id="link_Transition_IState"><path codeLine="113" d="M513.16,1005.91 C489.18,1025.55 472.5332,1039.186 450.1432,1057.526" fill="none" id="Transition-to-IState" style="stroke:#E7E7E7;stroke-width:1;stroke-dasharray:7.0,7.0;"/><polygon fill="#E7E7E7" points="440.86,1065.13,448.0363,1064.4224,450.1432,1057.526,442.9669,1058.2336,440.86,1065.13" style="stroke:#E7E7E7;stroke-width:1;"/></g><!--link StateMachine to Transition--><g class="link" data-entity-1="StateMachine" data-entity-2="Transition" data-source-line="114" data-uid="lnk32" id="link_StateMachine_Transition"><path codeLine="114" d="M502.46,816.15 C516.68,835.86 524.6998,846.9778 538.2898,865.8178" fill="none" id="StateMachine-to-Transition" style="stroke:#E7E7E7;stroke-width:1;stroke-dasharray:7.0,7.0;"/><polygon fill="#E7E7E7" points="545.31,875.55,545.044,868.3438,538.2898,865.8178,538.5558,873.024,545.31,875.55" style="stroke:#E7E7E7;stroke-width:1;"/></g><!--link StateMachine to IState--><g class="link" data-entity-1="StateMachine" data-entity-2="IState" data-source-line="115" data-uid="lnk33" id="link_StateMachine_IState"><path codeLine="115" d="M429.21,816.17 C425.59,835.71 421.85,856.56 418.58,875.94 C407.53,941.38 397.9958,1005.3733 391.0758,1053.2733" fill="none" id="StateMachine-to-IState" style="stroke:#E7E7E7;stroke-width:1;stroke-dasharray:7.0,7.0;"/><polygon fill="#E7E7E7" points="389.36,1065.15,394.1768,1059.7836,391.0758,1053.2733,386.259,1058.6397,389.36,1065.15" style="stroke:#E7E7E7;stroke-width:1;"/></g><!--SRC=[dLJTRjiW5BxtKo3rnbsJl80ZIrtKRP6MJMgo1o104bGR9Y1PgsdllWC7OuYZNlJ6Fn_V-Su_KZbX3fG9ibxflgUALt-hXukMd8XNmSvErFTDzQ-gP47SwsV1jE72U3e9VCfvEAd3ap3_1Dju-YoiSD-aTTgyrG4U79BLIR2NBzgWDRfZ7RMMH4Oq0rVpmB4e7k4ceU01lpA97zhqj1EFpb7sCgOuNsyTTOAmip52kV3JaEhX5hsENEkVzy3AumDlNkuxnB8Cloq6PoSyJxFEI7KaYlQYYKRegYKql27qUIhC4tO08AW-uVqnomlDG3CFhgcIBSDt7aKWRYWxIILyCEHM3G0EOU4PXDLruSkcavsXoaedjR8jSUDFQlLFzUitfpWv4NhaFAXSbN8SZbvVn7kCxH_fs2aoRC60_EWU2akP8v-fHPdbheKKxyYko1ggSNSrlzYjDCr9eDwXWsWvUzSCefXa7e4dlpUec86lqYMiNAu0G-WVriiQFdOgR_V1w3xrEc9E9sJxPfte5uUpOikzrfsVPyM3Ykz6rDIgJZgpmNmsKaFdl3bkzsh0om2_mXvigAB7S8_adIgAxyCAcPw7QcGQQzw9eMZZTaWpmJRw0hkNmQdNP3vlHvCIpgtAaz5nbWPPB3wLYvOsqjlSl8tAMouen8lbQkQymXKvYsdYkJowqghYdPcy8P2eGsGHYjSDlafIZc4znhdBqQAz7i_6StA6Dly1]--></g></svg>