<svg xmlns="http://www.w3.org/2000/svg" xmlns:xlink="http://www.w3.org/1999/xlink" contentStyleType="text/css" data-diagram-type="CLASS" height="1169px" preserveAspectRatio="none" style="width:1963px;height:1169px;background:#1B1B1B;" version="1.1" viewBox="0 0 1963 1169" width="1963px" zoomAndPan="magnify"><defs/><g><rect fill="#1B1B1B" height="1169" style="stroke:none;stroke-width:1;" width="1963" x="0" y="0"/><!--class ICommand--><g class="entity" data-entity="ICommand" data-source-line="1" data-uid="ent0002" id="entity_ICommand"><rect fill="#313139" height="80.5938" rx="2.5" ry="2.5" style="stroke:#E7E7E7;stroke-width:0.5;" width="209.6338" x="11.03" y="784.23"/><ellipse cx="73.5549" cy="800.23" fill="#352866" rx="11" ry="11" style="stroke:#E7E7E7;stroke-width:1;"/><path d="M69.4768,795.9956 L69.4768,793.8394 L76.8674,793.8394 L76.8674,795.9956 L74.3987,795.9956 L74.3987,804.0738 L76.8674,804.0738 L76.8674,806.23 L69.4768,806.23 L69.4768,804.0738 L71.9455,804.0738 L71.9455,795.9956 L69.4768,795.9956 Z " fill="#FFFFFF"/><text fill="#FFFFFF" font-family="sans-serif" font-size="14" font-style="italic" lengthAdjust="spacing" textLength="76.084" x="94.0549" y="805.0767">ICommand</text><line style="stroke:#E7E7E7;stroke-width:0.5;" x1="12.03" x2="219.6638" y1="816.23" y2="816.23"/><line style="stroke:#E7E7E7;stroke-width:0.5;" x1="12.03" x2="219.6638" y1="824.23" y2="824.23"/><ellipse cx="22.03" cy="837.8784" fill="#84BE84" rx="3" ry="3" style="stroke:#038048;stroke-width:1;"/><text fill="#FFFFFF" font-family="sans-serif" font-size="14" lengthAdjust="spacing" textLength="105.9023" x="31.03" y="841.2251">void execute();</text><ellipse cx="22.03" cy="854.1753" fill="#84BE84" rx="3" ry="3" style="stroke:#038048;stroke-width:1;"/><text fill="#FFFFFF" font-family="sans-serif" font-size="14" lengthAdjust="spacing" textLength="183.6338" x="31.03" y="857.522">AttackValues GetValues();</text></g><!--class AttackValues--><g class="entity" data-entity="AttackValues" data-source-line="7" data-uid="ent0003" id="entity_AttackValues"><rect fill="#313139" height="96.8906" rx="2.5" ry="2.5" style="stroke:#E7E7E7;stroke-width:0.5;" width="192.7217" x="19.49" y="1065.42"/><ellipse cx="65.718" cy="1081.42" fill="#2E5233" rx="11" ry="11" style="stroke:#E7E7E7;stroke-width:1;"/><path d="M68.6868,1087.0606 Q68.1087,1087.3575 67.468,1087.4981 Q66.8274,1087.6544 66.1243,1087.6544 Q63.6243,1087.6544 62.2962,1086.0137 Q60.9837,1084.3575 60.9837,1081.2325 Q60.9837,1078.1075 62.2962,1076.4512 Q63.6243,1074.795 66.1243,1074.795 Q66.8274,1074.795 67.468,1074.9512 Q68.1243,1075.1075 68.6868,1075.4044 L68.6868,1078.1231 Q68.0618,1077.545 67.468,1077.2794 Q66.8743,1076.9981 66.2493,1076.9981 Q64.9055,1076.9981 64.218,1078.0762 Q63.5305,1079.1387 63.5305,1081.2325 Q63.5305,1083.3262 64.218,1084.4044 Q64.9055,1085.4669 66.2493,1085.4669 Q66.8743,1085.4669 67.468,1085.2012 Q68.0618,1084.92 68.6868,1084.3419 L68.6868,1087.0606 Z " fill="#FFFFFF"/><text fill="#FFFFFF" font-family="sans-serif" font-size="14" lengthAdjust="spacing" textLength="91.7656" x="86.218" y="1086.2667">AttackValues</text><line style="stroke:#E7E7E7;stroke-width:0.5;" x1="20.49" x2="211.2117" y1="1097.42" y2="1097.42"/><rect fill="none" height="6" style="stroke:#C82930;stroke-width:1;" width="6" x="27.49" y="1108.0684"/><text fill="#FFFFFF" font-family="sans-serif" font-size="14" lengthAdjust="spacing" textLength="107.1123" x="39.49" y="1114.4151">float cooldown;</text><rect fill="none" height="6" style="stroke:#C82930;stroke-width:1;" width="6" x="27.49" y="1124.3653"/><text fill="#FFFFFF" font-family="sans-serif" font-size="14" lengthAdjust="spacing" textLength="166.7217" x="39.49" y="1130.712">AttackType attackType;</text><rect fill="none" height="6" style="stroke:#C82930;stroke-width:1;" width="6" x="27.49" y="1140.6622"/><text fill="#FFFFFF" font-family="sans-serif" font-size="14" lengthAdjust="spacing" textLength="119.7314" x="39.49" y="1147.0089">string animation;</text><line style="stroke:#E7E7E7;stroke-width:0.5;" x1="20.49" x2="211.2117" y1="1154.3106" y2="1154.3106"/></g><!--class AttackType--><g class="entity" data-entity="AttackType" data-source-line="14" data-uid="ent0004" id="entity_AttackType"><rect fill="#313139" height="80.5938" rx="2.5" ry="2.5" style="stroke:#E7E7E7;stroke-width:0.5;" width="111.2764" x="289.21" y="924.83"/><ellipse cx="304.21" cy="940.83" fill="#852D19" rx="11" ry="11" style="stroke:#E7E7E7;stroke-width:1;"/><path d="M308.3194,946.83 L300.6006,946.83 L300.6006,934.4394 L308.3194,934.4394 L308.3194,936.5956 L303.0538,936.5956 L303.0538,939.2675 L307.8194,939.2675 L307.8194,941.4237 L303.0538,941.4237 L303.0538,944.6737 L308.3194,944.6737 L308.3194,946.83 Z " fill="#FFFFFF"/><text fill="#FFFFFF" font-family="sans-serif" font-size="14" lengthAdjust="spacing" textLength="79.2764" x="318.21" y="945.6767">AttackType</text><line style="stroke:#E7E7E7;stroke-width:0.5;" x1="290.21" x2="399.4864" y1="956.83" y2="956.83"/><text fill="#FFFFFF" font-family="sans-serif" font-size="14" lengthAdjust="spacing" textLength="53.751" x="295.21" y="973.8251">normal,</text><text fill="#FFFFFF" font-family="sans-serif" font-size="14" lengthAdjust="spacing" textLength="61.9131" x="295.21" y="990.122">speciale,</text><line style="stroke:#E7E7E7;stroke-width:0.5;" x1="290.21" x2="399.4864" y1="997.4237" y2="997.4237"/></g><!--class CommandHistory--><g class="entity" data-entity="CommandHistory" data-source-line="20" data-uid="ent0005" id="entity_CommandHistory"><rect fill="#313139" height="129.4844" rx="2.5" ry="2.5" style="stroke:#E7E7E7;stroke-width:0.5;" width="252.7344" x="103.48" y="215.78"/><ellipse cx="164.7163" cy="231.78" fill="#2E5233" rx="11" ry="11" style="stroke:#E7E7E7;stroke-width:1;"/><path d="M167.6851,237.4206 Q167.107,237.7175 166.4663,237.8581 Q165.8257,238.0144 165.1226,238.0144 Q162.6226,238.0144 161.2945,236.3737 Q159.982,234.7175 159.982,231.5925 Q159.982,228.4675 161.2945,226.8112 Q162.6226,225.155 165.1226,225.155 Q165.8257,225.155 166.4663,225.3112 Q167.1226,225.4675 167.6851,225.7644 L167.6851,228.4831 Q167.0601,227.905 166.4663,227.6394 Q165.8726,227.3581 165.2476,227.3581 Q163.9038,227.3581 163.2163,228.4362 Q162.5288,229.4987 162.5288,231.5925 Q162.5288,233.6862 163.2163,234.7644 Q163.9038,235.8269 165.2476,235.8269 Q165.8726,235.8269 166.4663,235.5612 Q167.0601,235.28 167.6851,234.7019 L167.6851,237.4206 Z " fill="#FFFFFF"/><text fill="#FFFFFF" font-family="sans-serif" font-size="14" lengthAdjust="spacing" textLength="121.7617" x="185.2163" y="236.6267">CommandHistory</text><line style="stroke:#E7E7E7;stroke-width:0.5;" x1="104.48" x2="355.2144" y1="247.78" y2="247.78"/><rect fill="none" height="6" style="stroke:#C82930;stroke-width:1;" width="6" x="111.48" y="258.4284"/><text fill="#FFFFFF" font-family="sans-serif" font-size="14" lengthAdjust="spacing" textLength="163.0508" x="123.48" y="264.7751">Combos comboHistory;</text><rect fill="none" height="6" style="stroke:#C82930;stroke-width:1;" width="6" x="111.48" y="274.7253"/><text fill="#FFFFFF" font-family="sans-serif" font-size="14" lengthAdjust="spacing" textLength="144.0127" x="123.48" y="281.072">Combos setCombos;</text><line style="stroke:#E7E7E7;stroke-width:0.5;" x1="104.48" x2="355.2144" y1="288.3738" y2="288.3738"/><ellipse cx="114.48" cy="302.0222" fill="#84BE84" rx="3" ry="3" style="stroke:#038048;stroke-width:1;"/><text fill="#FFFFFF" font-family="sans-serif" font-size="14" lengthAdjust="spacing" textLength="226.7344" x="123.48" y="305.3689">void addCombo(Combo combo);</text><ellipse cx="114.48" cy="318.3191" fill="#84BE84" rx="3" ry="3" style="stroke:#038048;stroke-width:1;"/><text fill="#FFFFFF" font-family="sans-serif" font-size="14" lengthAdjust="spacing" textLength="139.2617" x="123.48" y="321.6657">void ResetHistory();</text><ellipse cx="114.48" cy="334.6159" fill="#84BE84" rx="3" ry="3" style="stroke:#038048;stroke-width:1;"/><text fill="#FFFFFF" font-family="sans-serif" font-size="14" lengthAdjust="spacing" textLength="211.0459" x="123.48" y="337.9626">ICommand CheckForCombo();</text></g><!--class NormaleAttackCommand--><g class="entity" data-entity="NormaleAttackCommand" data-source-line="29" data-uid="ent0006" id="entity_NormaleAttackCommand"><rect fill="#313139" height="64.2969" rx="2.5" ry="2.5" style="stroke:#E7E7E7;stroke-width:0.5;" width="217.7002" x="7" y="932.97"/><ellipse cx="26.1814" cy="948.97" fill="#2E5233" rx="11" ry="11" style="stroke:#E7E7E7;stroke-width:1;"/><path d="M29.1501,954.6106 Q28.572,954.9075 27.9314,955.0481 Q27.2908,955.2044 26.5876,955.2044 Q24.0876,955.2044 22.7595,953.5637 Q21.447,951.9075 21.447,948.7825 Q21.447,945.6575 22.7595,944.0012 Q24.0876,942.345 26.5876,942.345 Q27.2908,942.345 27.9314,942.5012 Q28.5876,942.6575 29.1501,942.9544 L29.1501,945.6731 Q28.5251,945.095 27.9314,944.8294 Q27.3376,944.5481 26.7126,944.5481 Q25.3689,944.5481 24.6814,945.6262 Q23.9939,946.6887 23.9939,948.7825 Q23.9939,950.8762 24.6814,951.9544 Q25.3689,953.0169 26.7126,953.0169 Q27.3376,953.0169 27.9314,952.7512 Q28.5251,952.47 29.1501,951.8919 L29.1501,954.6106 Z " fill="#FFFFFF"/><text fill="#FFFFFF" font-family="sans-serif" font-size="14" lengthAdjust="spacing" textLength="176.4082" x="41.1106" y="953.8167">NormaleAttackCommand</text><line style="stroke:#E7E7E7;stroke-width:0.5;" x1="8" x2="223.7002" y1="964.97" y2="964.97"/><rect fill="none" height="6" style="stroke:#C82930;stroke-width:1;" width="6" x="15" y="975.6184"/><text fill="#FFFFFF" font-family="sans-serif" font-size="14" lengthAdjust="spacing" textLength="191.7002" x="27" y="981.9651">AttackValues attackValues;</text><line style="stroke:#E7E7E7;stroke-width:0.5;" x1="8" x2="223.7002" y1="989.2669" y2="989.2669"/></g><!--class Combos--><g class="entity" data-entity="Combos" data-source-line="34" data-uid="ent0007" id="entity_Combos"><rect fill="#313139" height="64.2969" rx="2.5" ry="2.5" style="stroke:#E7E7E7;stroke-width:0.5;" width="187.1777" x="136.26" y="454.15"/><ellipse cx="197.2366" cy="470.15" fill="#2E5233" rx="11" ry="11" style="stroke:#E7E7E7;stroke-width:1;"/><path d="M200.2053,475.7906 Q199.6272,476.0875 198.9866,476.2281 Q198.3459,476.3844 197.6428,476.3844 Q195.1428,476.3844 193.8147,474.7438 Q192.5022,473.0875 192.5022,469.9625 Q192.5022,466.8375 193.8147,465.1813 Q195.1428,463.525 197.6428,463.525 Q198.3459,463.525 198.9866,463.6813 Q199.6428,463.8375 200.2053,464.1344 L200.2053,466.8531 Q199.5803,466.275 198.9866,466.0094 Q198.3928,465.7281 197.7678,465.7281 Q196.4241,465.7281 195.7366,466.8063 Q195.0491,467.8688 195.0491,469.9625 Q195.0491,472.0563 195.7366,473.1344 Q196.4241,474.1969 197.7678,474.1969 Q198.3928,474.1969 198.9866,473.9313 Q199.5803,473.65 200.2053,473.0719 L200.2053,475.7906 Z " fill="#FFFFFF"/><text fill="#FFFFFF" font-family="sans-serif" font-size="14" lengthAdjust="spacing" textLength="56.7246" x="217.7366" y="474.9967">Combos</text><line style="stroke:#E7E7E7;stroke-width:0.5;" x1="137.26" x2="322.4377" y1="486.15" y2="486.15"/><rect fill="none" height="6" style="stroke:#C82930;stroke-width:1;" width="6" x="144.26" y="496.7984"/><text fill="#FFFFFF" font-family="sans-serif" font-size="14" lengthAdjust="spacing" textLength="161.1777" x="156.26" y="503.1451">List&lt;Combo&gt; combos;</text><line style="stroke:#E7E7E7;stroke-width:0.5;" x1="137.26" x2="322.4377" y1="510.4469" y2="510.4469"/></g><!--class Combo--><g class="entity" data-entity="Combo" data-source-line="39" data-uid="ent0008" id="entity_Combo"><rect fill="#313139" height="113.1875" rx="2.5" ry="2.5" style="stroke:#E7E7E7;stroke-width:0.5;" width="179.2754" x="140.21" y="611.04"/><ellipse cx="200.8824" cy="627.04" fill="#2E5233" rx="11" ry="11" style="stroke:#E7E7E7;stroke-width:1;"/><path d="M203.8511,632.6806 Q203.273,632.9775 202.6324,633.1181 Q201.9917,633.2744 201.2886,633.2744 Q198.7886,633.2744 197.4605,631.6338 Q196.148,629.9775 196.148,626.8525 Q196.148,623.7275 197.4605,622.0713 Q198.7886,620.415 201.2886,620.415 Q201.9917,620.415 202.6324,620.5713 Q203.2886,620.7275 203.8511,621.0244 L203.8511,623.7431 Q203.2261,623.165 202.6324,622.8994 Q202.0386,622.6181 201.4136,622.6181 Q200.0699,622.6181 199.3824,623.6963 Q198.6949,624.7588 198.6949,626.8525 Q198.6949,628.9463 199.3824,630.0244 Q200.0699,631.0869 201.4136,631.0869 Q202.0386,631.0869 202.6324,630.8213 Q203.2261,630.54 203.8511,629.9619 L203.8511,632.6806 Z " fill="#FFFFFF"/><text fill="#FFFFFF" font-family="sans-serif" font-size="14" lengthAdjust="spacing" textLength="49.4307" x="221.3824" y="631.8867">Combo</text><line style="stroke:#E7E7E7;stroke-width:0.5;" x1="141.21" x2="318.4854" y1="643.04" y2="643.04"/><rect fill="none" height="6" style="stroke:#C82930;stroke-width:1;" width="6" x="148.21" y="653.6884"/><text fill="#FFFFFF" font-family="sans-serif" font-size="14" lengthAdjust="spacing" textLength="89.0586" x="160.21" y="660.0351">string name;</text><rect fill="none" height="6" style="stroke:#C82930;stroke-width:1;" width="6" x="148.21" y="669.9853"/><text fill="#FFFFFF" font-family="sans-serif" font-size="14" lengthAdjust="spacing" textLength="153.2754" x="160.21" y="676.332">List&lt;Attack&gt; attacks;</text><rect fill="none" height="6" style="stroke:#C82930;stroke-width:1;" width="6" x="148.21" y="686.2822"/><text fill="#FFFFFF" font-family="sans-serif" font-size="14" lengthAdjust="spacing" textLength="141.668" x="160.21" y="692.6289">ICommand Execute;</text><rect fill="none" height="6" style="stroke:#C82930;stroke-width:1;" width="6" x="148.21" y="702.5791"/><text fill="#FFFFFF" font-family="sans-serif" font-size="14" lengthAdjust="spacing" textLength="58.8301" x="160.21" y="708.9257">int dmg;</text><line style="stroke:#E7E7E7;stroke-width:0.5;" x1="141.21" x2="318.4854" y1="716.2275" y2="716.2275"/></g><!--class Attack--><g class="entity" data-entity="Attack" data-source-line="47" data-uid="ent0009" id="entity_Attack"><rect fill="#313139" height="80.5938" rx="2.5" ry="2.5" style="stroke:#E7E7E7;stroke-width:0.5;" width="178.7217" x="255.49" y="784.23"/><ellipse cx="318.1311" cy="800.23" fill="#2E5233" rx="11" ry="11" style="stroke:#E7E7E7;stroke-width:1;"/><path d="M321.0999,805.8706 Q320.5217,806.1675 319.8811,806.3081 Q319.2405,806.4644 318.5374,806.4644 Q316.0374,806.4644 314.7092,804.8238 Q313.3967,803.1675 313.3967,800.0425 Q313.3967,796.9175 314.7092,795.2613 Q316.0374,793.605 318.5374,793.605 Q319.2405,793.605 319.8811,793.7613 Q320.5374,793.9175 321.0999,794.2144 L321.0999,796.9331 Q320.4749,796.355 319.8811,796.0894 Q319.2874,795.8081 318.6624,795.8081 Q317.3186,795.8081 316.6311,796.8863 Q315.9436,797.9488 315.9436,800.0425 Q315.9436,802.1363 316.6311,803.2144 Q317.3186,804.2769 318.6624,804.2769 Q319.2874,804.2769 319.8811,804.0113 Q320.4749,803.73 321.0999,803.1519 L321.0999,805.8706 Z " fill="#FFFFFF"/><text fill="#FFFFFF" font-family="sans-serif" font-size="14" lengthAdjust="spacing" textLength="44.9395" x="338.6311" y="805.0767">Attack</text><line style="stroke:#E7E7E7;stroke-width:0.5;" x1="256.49" x2="433.2117" y1="816.23" y2="816.23"/><text fill="#FFFFFF" font-family="sans-serif" font-size="14" lengthAdjust="spacing" textLength="85.8184" x="261.49" y="833.2251">IState state;</text><text fill="#FFFFFF" font-family="sans-serif" font-size="14" lengthAdjust="spacing" textLength="166.7217" x="261.49" y="849.522">AttackType attackType;</text><line style="stroke:#E7E7E7;stroke-width:0.5;" x1="256.49" x2="433.2117" y1="856.8238" y2="856.8238"/></g><!--class StateMachine--><g class="entity" data-entity="StateMachine" data-source-line="53" data-uid="ent0010" id="entity_StateMachine"><rect fill="#313139" height="162.0781" rx="2.5" ry="2.5" style="stroke:#E7E7E7;stroke-width:0.5;" width="251.3193" x="1298.19" y="199.48"/><ellipse cx="1371.7686" cy="215.48" fill="#2E5233" rx="11" ry="11" style="stroke:#E7E7E7;stroke-width:1;"/><path d="M1374.7374,221.1206 Q1374.1592,221.4175 1373.5186,221.5581 Q1372.878,221.7144 1372.1749,221.7144 Q1369.6749,221.7144 1368.3467,220.0737 Q1367.0342,218.4175 1367.0342,215.2925 Q1367.0342,212.1675 1368.3467,210.5112 Q1369.6749,208.855 1372.1749,208.855 Q1372.878,208.855 1373.5186,209.0112 Q1374.1749,209.1675 1374.7374,209.4644 L1374.7374,212.1831 Q1374.1124,211.605 1373.5186,211.3394 Q1372.9249,211.0581 1372.2999,211.0581 Q1370.9561,211.0581 1370.2686,212.1362 Q1369.5811,213.1987 1369.5811,215.2925 Q1369.5811,217.3862 1370.2686,218.4644 Q1370.9561,219.5269 1372.2999,219.5269 Q1372.9249,219.5269 1373.5186,219.2612 Q1374.1124,218.98 1374.7374,218.4019 L1374.7374,221.1206 Z " fill="#FFFFFF"/><text fill="#FFFFFF" font-family="sans-serif" font-size="14" lengthAdjust="spacing" textLength="95.6621" x="1392.2686" y="220.3267">StateMachine</text><line style="stroke:#E7E7E7;stroke-width:0.5;" x1="1299.19" x2="1548.5093" y1="231.48" y2="231.48"/><rect fill="none" height="6" style="stroke:#C82930;stroke-width:1;" width="6" x="1306.19" y="242.1284"/><text fill="#FFFFFF" font-family="sans-serif" font-size="14" lengthAdjust="spacing" textLength="138.4688" x="1318.19" y="248.4751">IState currentState;</text><rect fill="none" height="6" style="stroke:#C82930;stroke-width:1;" width="6" x="1306.19" y="258.4253"/><text fill="#FFFFFF" font-family="sans-serif" font-size="14" lengthAdjust="spacing" textLength="158.9971" x="1318.19" y="264.772">List&lt;IState&gt; allStates;</text><rect fill="none" height="6" style="stroke:#C82930;stroke-width:1;" width="6" x="1306.19" y="274.7222"/><text fill="#FFFFFF" font-family="sans-serif" font-size="14" lengthAdjust="spacing" textLength="208.1475" x="1318.19" y="281.0689">List&lt;Transitions&gt; transitions;</text><line style="stroke:#E7E7E7;stroke-width:0.5;" x1="1299.19" x2="1548.5093" y1="288.3706" y2="288.3706"/><ellipse cx="1309.19" cy="302.0191" fill="#84BE84" rx="3" ry="3" style="stroke:#038048;stroke-width:1;"/><text fill="#FFFFFF" font-family="sans-serif" font-size="14" lengthAdjust="spacing" textLength="120.3125" x="1318.19" y="305.3657">void OnUpdate();</text><ellipse cx="1309.19" cy="318.3159" fill="#84BE84" rx="3" ry="3" style="stroke:#038048;stroke-width:1;"/><text fill="#FFFFFF" font-family="sans-serif" font-size="14" lengthAdjust="spacing" textLength="195.2275" x="1318.19" y="321.6626">void AddState(IState state);</text><ellipse cx="1309.19" cy="334.6128" fill="#84BE84" rx="3" ry="3" style="stroke:#038048;stroke-width:1;"/><text fill="#FFFFFF" font-family="sans-serif" font-size="14" lengthAdjust="spacing" textLength="225.3193" x="1318.19" y="337.9595">void RemoveState(IState state);</text><ellipse cx="1309.19" cy="350.9097" fill="#84BE84" rx="3" ry="3" style="stroke:#038048;stroke-width:1;"/><text fill="#FFFFFF" font-family="sans-serif" font-size="14" lengthAdjust="spacing" textLength="212.5703" x="1318.19" y="354.2564">void SwitchState(Istate state);</text></g><!--class BaseState--><g class="entity" data-entity="BaseState" data-source-line="64" data-uid="ent0011" id="entity_BaseState"><rect fill="#313139" height="129.4844" rx="2.5" ry="2.5" style="stroke:#E7E7E7;stroke-width:0.5;" width="205.8604" x="1591.92" y="10"/><ellipse cx="1649.3609" cy="26" fill="#2A5D60" rx="11" ry="11" style="stroke:#E7E7E7;stroke-width:1;"/><path d="M1649.4703,21.3438 L1648.314,26.4219 L1650.6422,26.4219 L1649.4703,21.3438 Z M1647.9859,19.1094 L1650.9703,19.1094 L1654.3297,31.5 L1651.8765,31.5 L1651.1109,28.4375 L1647.8297,28.4375 L1647.0797,31.5 L1644.6422,31.5 L1647.9859,19.1094 Z " fill="#FFFFFF"/><text fill="#FFFFFF" font-family="sans-serif" font-size="14" font-style="italic" lengthAdjust="spacing" textLength="71.1484" x="1669.8609" y="30.8467">BaseState</text><rect fill="#FFFFFF" height="15.9688" style="stroke:#E7E7E7;stroke-width:1;stroke-dasharray:2.0,2.0;" width="9.3301" x="1791.4503" y="7"/><text fill="#000000" font-family="sans-serif" font-size="12" font-style="italic" lengthAdjust="spacing" textLength="7.3301" x="1792.4503" y="19.1387">T</text><line style="stroke:#E7E7E7;stroke-width:0.5;" x1="1592.92" x2="1796.7804" y1="42" y2="42"/><polygon fill="none" points="1602.92,50.6484,1606.92,54.6484,1602.92,58.6484,1598.92,54.6484" style="stroke:#B38D22;stroke-width:1;"/><text fill="#FFFFFF" font-family="sans-serif" font-size="14" lengthAdjust="spacing" textLength="113.3809" x="1611.92" y="58.9951">T StateMachine;</text><line style="stroke:#E7E7E7;stroke-width:0.5;" x1="1592.92" x2="1796.7804" y1="66.2969" y2="66.2969"/><text fill="#FFFFFF" font-family="sans-serif" font-size="14" lengthAdjust="spacing" textLength="193.8604" x="1597.92" y="83.292">BaseState(T stateMachine);</text><text fill="#FFFFFF" font-family="sans-serif" font-size="14" lengthAdjust="spacing" textLength="120.3125" x="1597.92" y="99.5889">void OnUpdate();</text><text fill="#FFFFFF" font-family="sans-serif" font-size="14" lengthAdjust="spacing" textLength="144.2451" x="1597.92" y="115.8857">void OnEnterState();</text><text fill="#FFFFFF" font-family="sans-serif" font-size="14" lengthAdjust="spacing" textLength="133.1777" x="1597.92" y="132.1826">void OnExitState();</text></g><!--class IState--><g class="entity" data-entity="IState" data-source-line="73" data-uid="ent0012" id="entity_IState"><rect fill="#313139" height="96.8906" rx="2.5" ry="2.5" style="stroke:#E7E7E7;stroke-width:0.5;" width="156.2451" x="1344.73" y="619.19"/><ellipse cx="1398.0093" cy="635.19" fill="#352866" rx="11" ry="11" style="stroke:#E7E7E7;stroke-width:1;"/><path d="M1393.9312,630.9556 L1393.9312,628.7994 L1401.3218,628.7994 L1401.3218,630.9556 L1398.853,630.9556 L1398.853,639.0337 L1401.3218,639.0337 L1401.3218,641.19 L1393.9312,641.19 L1393.9312,639.0337 L1396.3999,639.0337 L1396.3999,630.9556 L1393.9312,630.9556 Z " fill="#FFFFFF"/><text fill="#FFFFFF" font-family="sans-serif" font-size="14" font-style="italic" lengthAdjust="spacing" textLength="41.1865" x="1418.5093" y="640.0367">IState</text><line style="stroke:#E7E7E7;stroke-width:0.5;" x1="1345.73" x2="1499.9751" y1="651.19" y2="651.19"/><line style="stroke:#E7E7E7;stroke-width:0.5;" x1="1345.73" x2="1499.9751" y1="659.19" y2="659.19"/><text fill="#FFFFFF" font-family="sans-serif" font-size="14" lengthAdjust="spacing" textLength="120.3125" x="1350.73" y="676.1851">void OnUpdate();</text><text fill="#FFFFFF" font-family="sans-serif" font-size="14" lengthAdjust="spacing" textLength="144.2451" x="1350.73" y="692.482">void OnEnterState();</text><text fill="#FFFFFF" font-family="sans-serif" font-size="14" lengthAdjust="spacing" textLength="133.1777" x="1350.73" y="708.7789">void OnExitState();</text></g><!--class Transition--><g class="entity" data-entity="Transition" data-source-line="80" data-uid="ent0013" id="entity_Transition"><rect fill="#313139" height="129.4844" rx="2.5" ry="2.5" style="stroke:#E7E7E7;stroke-width:0.5;" width="311.0996" x="1372.3" y="421.56"/><ellipse cx="1488.7194" cy="437.56" fill="#2E5233" rx="11" ry="11" style="stroke:#E7E7E7;stroke-width:1;"/><path d="M1491.6882,443.2006 Q1491.1101,443.4975 1490.4694,443.6381 Q1489.8288,443.7944 1489.1257,443.7944 Q1486.6257,443.7944 1485.2976,442.1537 Q1483.9851,440.4975 1483.9851,437.3725 Q1483.9851,434.2475 1485.2976,432.5912 Q1486.6257,430.935 1489.1257,430.935 Q1489.8288,430.935 1490.4694,431.0912 Q1491.1257,431.2475 1491.6882,431.5444 L1491.6882,434.2631 Q1491.0632,433.685 1490.4694,433.4194 Q1489.8757,433.1381 1489.2507,433.1381 Q1487.9069,433.1381 1487.2194,434.2162 Q1486.5319,435.2787 1486.5319,437.3725 Q1486.5319,439.4662 1487.2194,440.5444 Q1487.9069,441.6069 1489.2507,441.6069 Q1489.8757,441.6069 1490.4694,441.3412 Q1491.0632,441.06 1491.6882,440.4819 L1491.6882,443.2006 Z " fill="#FFFFFF"/><text fill="#FFFFFF" font-family="sans-serif" font-size="14" lengthAdjust="spacing" textLength="69.7607" x="1509.2194" y="442.4067">Transition</text><line style="stroke:#E7E7E7;stroke-width:0.5;" x1="1373.3" x2="1682.3996" y1="453.56" y2="453.56"/><rect fill="none" height="6" style="stroke:#C82930;stroke-width:1;" width="6" x="1380.3" y="464.2084"/><text fill="#FFFFFF" font-family="sans-serif" font-size="14" lengthAdjust="spacing" textLength="120.2988" x="1392.3" y="470.5551">IState fromState;</text><rect fill="none" height="6" style="stroke:#C82930;stroke-width:1;" width="6" x="1380.3" y="480.5053"/><text fill="#FFFFFF" font-family="sans-serif" font-size="14" lengthAdjust="spacing" textLength="101.4658" x="1392.3" y="486.852">IState toState;</text><rect fill="none" height="6" style="stroke:#C82930;stroke-width:1;" width="6" x="1380.3" y="496.8022"/><text fill="#FFFFFF" font-family="sans-serif" font-size="14" lengthAdjust="spacing" textLength="214.293" x="1392.3" y="503.1489">System.func&lt;bool&gt; condition;</text><line style="stroke:#E7E7E7;stroke-width:0.5;" x1="1373.3" x2="1682.3996" y1="510.4506" y2="510.4506"/><ellipse cx="1383.3" cy="524.0991" fill="#84BE84" rx="3" ry="3" style="stroke:#038048;stroke-width:1;"/><text fill="#FFFFFF" font-family="sans-serif" font-size="14" lengthAdjust="spacing" textLength="285.0996" x="1392.3" y="527.4457">Transiton(fromState, toState, condition);</text><ellipse cx="1383.3" cy="540.3959" fill="#84BE84" rx="3" ry="3" style="stroke:#038048;stroke-width:1;"/><text fill="#FFFFFF" font-family="sans-serif" font-size="14" lengthAdjust="spacing" textLength="159.8721" x="1392.3" y="543.7426">bool CheckCondition();</text></g><!--class CoolDownManager--><g class="entity" data-entity="CoolDownManager" data-source-line="89" data-uid="ent0014" id="entity_CoolDownManager"><rect fill="#313139" height="129.4844" rx="2.5" ry="2.5" style="stroke:#E7E7E7;stroke-width:0.5;" width="268.5869" x="391.56" y="215.78"/><ellipse cx="455.6879" cy="231.78" fill="#2E5233" rx="11" ry="11" style="stroke:#E7E7E7;stroke-width:1;"/><path d="M458.6567,237.4206 Q458.0786,237.7175 457.4379,237.8581 Q456.7973,238.0144 456.0942,238.0144 Q453.5942,238.0144 452.2661,236.3737 Q450.9536,234.7175 450.9536,231.5925 Q450.9536,228.4675 452.2661,226.8112 Q453.5942,225.155 456.0942,225.155 Q456.7973,225.155 457.4379,225.3112 Q458.0942,225.4675 458.6567,225.7644 L458.6567,228.4831 Q458.0317,227.905 457.4379,227.6394 Q456.8442,227.3581 456.2192,227.3581 Q454.8754,227.3581 454.1879,228.4362 Q453.5004,229.4987 453.5004,231.5925 Q453.5004,233.6862 454.1879,234.7644 Q454.8754,235.8269 456.2192,235.8269 Q456.8442,235.8269 457.4379,235.5612 Q458.0317,235.28 458.6567,234.7019 L458.6567,237.4206 Z " fill="#FFFFFF"/><text fill="#FFFFFF" font-family="sans-serif" font-size="14" lengthAdjust="spacing" textLength="131.8311" x="476.1879" y="236.6267">CoolDownManager</text><line style="stroke:#E7E7E7;stroke-width:0.5;" x1="392.56" x2="659.1469" y1="247.78" y2="247.78"/><rect fill="none" height="6" style="stroke:#C82930;stroke-width:1;" width="6" x="399.56" y="258.4284"/><text fill="#FFFFFF" font-family="sans-serif" font-size="14" lengthAdjust="spacing" textLength="73.2881" x="411.56" y="264.7751">float timer</text><rect fill="none" height="6" style="stroke:#C82930;stroke-width:1;" width="6" x="399.56" y="274.7253"/><text fill="#FFFFFF" font-family="sans-serif" font-size="14" lengthAdjust="spacing" textLength="163.2012" x="411.56" y="281.072">float cooldownDuration</text><line style="stroke:#E7E7E7;stroke-width:0.5;" x1="392.56" x2="659.1469" y1="288.3738" y2="288.3738"/><ellipse cx="402.56" cy="302.0222" fill="#84BE84" rx="3" ry="3" style="stroke:#038048;stroke-width:1;"/><text fill="#FFFFFF" font-family="sans-serif" font-size="14" lengthAdjust="spacing" textLength="242.5869" x="411.56" y="305.3689">void StartCooldown(float duration)</text><ellipse cx="402.56" cy="318.3191" fill="#84BE84" rx="3" ry="3" style="stroke:#038048;stroke-width:1;"/><text fill="#FFFFFF" font-family="sans-serif" font-size="14" lengthAdjust="spacing" textLength="201.7559" x="411.56" y="321.6657">void Update(float deltaTime)</text><ellipse cx="402.56" cy="334.6159" fill="#84BE84" rx="3" ry="3" style="stroke:#038048;stroke-width:1;"/><text fill="#FFFFFF" font-family="sans-serif" font-size="14" lengthAdjust="spacing" textLength="145.168" x="411.56" y="337.9626">bool IsOnCooldown()</text></g><!--class InputManager--><g class="entity" data-entity="InputManager" data-source-line="97" data-uid="ent0015" id="entity_InputManager"><rect fill="#313139" height="162.0781" rx="2.5" ry="2.5" style="stroke:#E7E7E7;stroke-width:0.5;" width="568.0625" x="694.82" y="199.48"/><ellipse cx="925.7927" cy="215.48" fill="#2E5233" rx="11" ry="11" style="stroke:#E7E7E7;stroke-width:1;"/><path d="M928.7614,221.1206 Q928.1833,221.4175 927.5427,221.5581 Q926.902,221.7144 926.1989,221.7144 Q923.6989,221.7144 922.3708,220.0737 Q921.0583,218.4175 921.0583,215.2925 Q921.0583,212.1675 922.3708,210.5112 Q923.6989,208.855 926.1989,208.855 Q926.902,208.855 927.5427,209.0112 Q928.1989,209.1675 928.7614,209.4644 L928.7614,212.1831 Q928.1364,211.605 927.5427,211.3394 Q926.9489,211.0581 926.3239,211.0581 Q924.9802,211.0581 924.2927,212.1362 Q923.6052,213.1987 923.6052,215.2925 Q923.6052,217.3862 924.2927,218.4644 Q924.9802,219.5269 926.3239,219.5269 Q926.9489,219.5269 927.5427,219.2612 Q928.1364,218.98 928.7614,218.4019 L928.7614,221.1206 Z " fill="#FFFFFF"/><text fill="#FFFFFF" font-family="sans-serif" font-size="14" lengthAdjust="spacing" textLength="97.6172" x="946.2927" y="220.3267">InputManager</text><line style="stroke:#E7E7E7;stroke-width:0.5;" x1="695.82" x2="1261.8825" y1="231.48" y2="231.48"/><rect fill="none" height="6" style="stroke:#C82930;stroke-width:1;" width="6" x="702.82" y="242.1284"/><text fill="#FFFFFF" font-family="sans-serif" font-size="14" lengthAdjust="spacing" textLength="535.2949" x="714.82" y="248.4751">dictionairy &lt;IState, dictionairy&lt;AttackType, ICommand&gt;&gt; allInputBindings;</text><rect fill="none" height="6" style="stroke:#C82930;stroke-width:1;" width="6" x="702.82" y="258.4253"/><text fill="#FFFFFF" font-family="sans-serif" font-size="14" lengthAdjust="spacing" textLength="418.1953" x="714.82" y="264.772">dictionairy&lt;AttackType, ICommand&gt; currentInputBindings;</text><rect fill="none" height="6" style="stroke:#C82930;stroke-width:1;" width="6" x="702.82" y="274.7222"/><text fill="#FFFFFF" font-family="sans-serif" font-size="14" lengthAdjust="spacing" textLength="138.4688" x="714.82" y="281.0689">IState currentState;</text><line style="stroke:#E7E7E7;stroke-width:0.5;" x1="695.82" x2="1261.8825" y1="288.3706" y2="288.3706"/><ellipse cx="705.82" cy="302.0191" fill="#84BE84" rx="3" ry="3" style="stroke:#038048;stroke-width:1;"/><text fill="#FFFFFF" font-family="sans-serif" font-size="14" lengthAdjust="spacing" textLength="542.0625" x="714.82" y="305.3657">void AddBinding(IStatet state, AttackType attackType, ICommand command)</text><ellipse cx="705.82" cy="318.3159" fill="#84BE84" rx="3" ry="3" style="stroke:#038048;stroke-width:1;"/><text fill="#FFFFFF" font-family="sans-serif" font-size="14" lengthAdjust="spacing" textLength="212.5703" x="714.82" y="321.6626">void switchState(IState state);</text><rect fill="#F24D5C" height="6" style="stroke:#C82930;stroke-width:1;" width="6" x="702.82" y="331.6128"/><text fill="#FFFFFF" font-family="sans-serif" font-size="14" lengthAdjust="spacing" textLength="199.7666" x="714.82" y="337.9595">void ChangeInputBindings();</text><ellipse cx="705.82" cy="350.9097" fill="#84BE84" rx="3" ry="3" style="stroke:#038048;stroke-width:1;"/><text fill="#FFFFFF" font-family="sans-serif" font-size="14" lengthAdjust="spacing" textLength="297.3428" x="714.82" y="354.2564">void HandleInput(AttackType attackType);</text></g><!--class GameManager--><g class="entity" data-entity="GameManager" data-source-line="108" data-uid="ent0016" id="entity_GameManager"><rect fill="#313139" height="129.4844" rx="2.5" ry="2.5" style="stroke:#E7E7E7;stroke-width:0.5;" width="282.751" x="611.47" y="10"/><ellipse cx="697.073" cy="26" fill="#2E5233" rx="11" ry="11" style="stroke:#E7E7E7;stroke-width:1;"/><path d="M700.0418,31.6406 Q699.4637,31.9375 698.823,32.0781 Q698.1824,32.2344 697.4793,32.2344 Q694.9793,32.2344 693.6512,30.5938 Q692.3387,28.9375 692.3387,25.8125 Q692.3387,22.6875 693.6512,21.0313 Q694.9793,19.375 697.4793,19.375 Q698.1824,19.375 698.823,19.5313 Q699.4793,19.6875 700.0418,19.9844 L700.0418,22.7031 Q699.4168,22.125 698.823,21.8594 Q698.2293,21.5781 697.6043,21.5781 Q696.2605,21.5781 695.573,22.6563 Q694.8855,23.7188 694.8855,25.8125 Q694.8855,27.9063 695.573,28.9844 Q696.2605,30.0469 697.6043,30.0469 Q698.2293,30.0469 698.823,29.7813 Q699.4168,29.5 700.0418,28.9219 L700.0418,31.6406 Z " fill="#FFFFFF"/><text fill="#FFFFFF" font-family="sans-serif" font-size="14" lengthAdjust="spacing" textLength="103.0449" x="717.573" y="30.8467">GameManager</text><line style="stroke:#E7E7E7;stroke-width:0.5;" x1="612.47" x2="893.221" y1="42" y2="42"/><text fill="#FFFFFF" font-family="sans-serif" font-size="14" lengthAdjust="spacing" textLength="198.8984" x="617.47" y="58.9951">StateMachine stateMachine;</text><text fill="#FFFFFF" font-family="sans-serif" font-size="14" lengthAdjust="spacing" textLength="270.751" x="617.47" y="75.292">CoolDownManager coolDownManager;</text><text fill="#FFFFFF" font-family="sans-serif" font-size="14" lengthAdjust="spacing" textLength="250.6123" x="617.47" y="91.5889">CommandHistory commandHistory;</text><text fill="#FFFFFF" font-family="sans-serif" font-size="14" lengthAdjust="spacing" textLength="204.1621" x="617.47" y="107.8857">InputManager inputManager;</text><line style="stroke:#E7E7E7;stroke-width:0.5;" x1="612.47" x2="893.221" y1="115.1875" y2="115.1875"/><rect fill="#F24D5C" height="6" style="stroke:#C82930;stroke-width:1;" width="6" x="619.47" y="125.8359"/><text fill="#FFFFFF" font-family="sans-serif" font-size="14" lengthAdjust="spacing" textLength="99.0459" x="631.47" y="132.1826">void update();</text></g><!--class IdleState--><g class="entity" data-entity="IdleState" data-source-line="117" data-uid="ent0017" id="entity_IdleState"><rect fill="#313139" height="48" rx="2.5" ry="2.5" style="stroke:#E7E7E7;stroke-width:0.5;" width="94.5762" x="1584.56" y="256.52"/><ellipse cx="1599.56" cy="272.52" fill="#2E5233" rx="11" ry="11" style="stroke:#E7E7E7;stroke-width:1;"/><path d="M1602.5288,278.1606 Q1601.9506,278.4575 1601.31,278.5981 Q1600.6694,278.7544 1599.9663,278.7544 Q1597.4663,278.7544 1596.1381,277.1138 Q1594.8256,275.4575 1594.8256,272.3325 Q1594.8256,269.2075 1596.1381,267.5513 Q1597.4663,265.895 1599.9663,265.895 Q1600.6694,265.895 1601.31,266.0513 Q1601.9663,266.2075 1602.5288,266.5044 L1602.5288,269.2231 Q1601.9038,268.645 1601.31,268.3794 Q1600.7163,268.0981 1600.0913,268.0981 Q1598.7475,268.0981 1598.06,269.1763 Q1597.3725,270.2388 1597.3725,272.3325 Q1597.3725,274.4263 1598.06,275.5044 Q1598.7475,276.5669 1600.0913,276.5669 Q1600.7163,276.5669 1601.31,276.3013 Q1601.9038,276.02 1602.5288,275.4419 L1602.5288,278.1606 Z " fill="#FFFFFF"/><text fill="#FFFFFF" font-family="sans-serif" font-size="14" lengthAdjust="spacing" textLength="62.5762" x="1613.56" y="277.3667">IdleState</text><line style="stroke:#E7E7E7;stroke-width:0.5;" x1="1585.56" x2="1678.1362" y1="288.52" y2="288.52"/><line style="stroke:#E7E7E7;stroke-width:0.5;" x1="1585.56" x2="1678.1362" y1="296.52" y2="296.52"/></g><!--class AirState--><g class="entity" data-entity="AirState" data-source-line="121" data-uid="ent0018" id="entity_AirState"><rect fill="#313139" height="48" rx="2.5" ry="2.5" style="stroke:#E7E7E7;stroke-width:0.5;" width="88.2803" x="1713.71" y="256.52"/><ellipse cx="1728.71" cy="272.52" fill="#2E5233" rx="11" ry="11" style="stroke:#E7E7E7;stroke-width:1;"/><path d="M1731.6788,278.1606 Q1731.1006,278.4575 1730.46,278.5981 Q1729.8194,278.7544 1729.1163,278.7544 Q1726.6163,278.7544 1725.2881,277.1138 Q1723.9756,275.4575 1723.9756,272.3325 Q1723.9756,269.2075 1725.2881,267.5513 Q1726.6163,265.895 1729.1163,265.895 Q1729.8194,265.895 1730.46,266.0513 Q1731.1163,266.2075 1731.6788,266.5044 L1731.6788,269.2231 Q1731.0538,268.645 1730.46,268.3794 Q1729.8663,268.0981 1729.2413,268.0981 Q1727.8975,268.0981 1727.21,269.1763 Q1726.5225,270.2388 1726.5225,272.3325 Q1726.5225,274.4263 1727.21,275.5044 Q1727.8975,276.5669 1729.2413,276.5669 Q1729.8663,276.5669 1730.46,276.3013 Q1731.0538,276.02 1731.6788,275.4419 L1731.6788,278.1606 Z " fill="#FFFFFF"/><text fill="#FFFFFF" font-family="sans-serif" font-size="14" lengthAdjust="spacing" textLength="56.2803" x="1742.71" y="277.3667">AirState</text><line style="stroke:#E7E7E7;stroke-width:0.5;" x1="1714.71" x2="1800.9903" y1="288.52" y2="288.52"/><line style="stroke:#E7E7E7;stroke-width:0.5;" x1="1714.71" x2="1800.9903" y1="296.52" y2="296.52"/></g><!--class MovingState--><g class="entity" data-entity="MovingState" data-source-line="125" data-uid="ent0019" id="entity_MovingState"><rect fill="#313139" height="48" rx="2.5" ry="2.5" style="stroke:#E7E7E7;stroke-width:0.5;" width="119.6367" x="1837.03" y="256.52"/><ellipse cx="1852.03" cy="272.52" fill="#2E5233" rx="11" ry="11" style="stroke:#E7E7E7;stroke-width:1;"/><path d="M1854.9988,278.1606 Q1854.4206,278.4575 1853.78,278.5981 Q1853.1394,278.7544 1852.4363,278.7544 Q1849.9363,278.7544 1848.6081,277.1138 Q1847.2956,275.4575 1847.2956,272.3325 Q1847.2956,269.2075 1848.6081,267.5513 Q1849.9363,265.895 1852.4363,265.895 Q1853.1394,265.895 1853.78,266.0513 Q1854.4363,266.2075 1854.9988,266.5044 L1854.9988,269.2231 Q1854.3738,268.645 1853.78,268.3794 Q1853.1863,268.0981 1852.5613,268.0981 Q1851.2175,268.0981 1850.53,269.1763 Q1849.8425,270.2388 1849.8425,272.3325 Q1849.8425,274.4263 1850.53,275.5044 Q1851.2175,276.5669 1852.5613,276.5669 Q1853.1863,276.5669 1853.78,276.3013 Q1854.3738,276.02 1854.9988,275.4419 L1854.9988,278.1606 Z " fill="#FFFFFF"/><text fill="#FFFFFF" font-family="sans-serif" font-size="14" lengthAdjust="spacing" textLength="87.6367" x="1866.03" y="277.3667">MovingState</text><line style="stroke:#E7E7E7;stroke-width:0.5;" x1="1838.03" x2="1955.6667" y1="288.52" y2="288.52"/><line style="stroke:#E7E7E7;stroke-width:0.5;" x1="1838.03" x2="1955.6667" y1="296.52" y2="296.52"/></g><!--link BaseState to AirState--><g class="link" data-entity-1="BaseState" data-entity-2="AirState" data-source-line="129" data-uid="lnk20" id="link_BaseState_AirState"><path codeLine="129" d="M1714.7,139.94 C1726.96,179.6 1740.1996,222.4071 1748.8896,250.5471" fill="none" id="BaseState-to-AirState" style="stroke:#E7E7E7;stroke-width:1;"/><polygon fill="#E7E7E7" points="1750.66,256.28,1751.8263,246.5004,1749.1847,251.5026,1744.1825,248.861,1750.66,256.28" style="stroke:#E7E7E7;stroke-width:1;"/></g><!--link BaseState to MovingState--><g class="link" data-entity-1="BaseState" data-entity-2="MovingState" data-source-line="130" data-uid="lnk21" id="link_BaseState_MovingState"><path codeLine="130" d="M1760.03,139.67 C1779.38,158.81 1800.56,179.91 1819.85,199.48 C1838.53,218.43 1855.3086,235.8685 1870.6186,251.9185" fill="none" id="BaseState-to-MovingState" style="stroke:#E7E7E7;stroke-width:1;"/><polygon fill="#E7E7E7" points="1874.76,256.26,1871.4423,246.9868,1871.3089,252.642,1865.6536,252.5086,1874.76,256.26" style="stroke:#E7E7E7;stroke-width:1;"/></g><!--link BaseState to IdleState--><g class="link" data-entity-1="BaseState" data-entity-2="IdleState" data-source-line="131" data-uid="lnk22" id="link_BaseState_IdleState"><path codeLine="131" d="M1675,139.94 C1662.74,179.6 1649.5004,222.4071 1640.8104,250.5471" fill="none" id="BaseState-to-IdleState" style="stroke:#E7E7E7;stroke-width:1;"/><polygon fill="#E7E7E7" points="1639.04,256.28,1645.5175,248.861,1640.5153,251.5026,1637.8737,246.5004,1639.04,256.28" style="stroke:#E7E7E7;stroke-width:1;"/></g><!--link GameManager to StateMachine--><g class="link" data-entity-1="GameManager" data-entity-2="StateMachine" data-source-line="132" data-uid="lnk23" id="link_GameManager_StateMachine"><path codeLine="132" d="M894.47,97.8 C1002.67,117.29 1154.24,150.34 1280.85,199.48 C1286.55,201.7 1281.3403,199.2352 1287.0903,201.7852" fill="none" id="GameManager-to-StateMachine" style="stroke:#E7E7E7;stroke-width:1;stroke-dasharray:7.0,7.0;"/><polygon fill="#E7E7E7" points="1298.06,206.65,1294.1968,200.561,1287.0903,201.7852,1290.9536,207.8742,1298.06,206.65" style="stroke:#E7E7E7;stroke-width:1;"/></g><!--link ICommand to NormaleAttackCommand--><g class="link" data-entity-1="ICommand" data-entity-2="NormaleAttackCommand" data-source-line="133" data-uid="lnk24" id="link_ICommand_NormaleAttackCommand"><path codeLine="133" d="M115.85,865.24 C115.85,886.68 115.85,906.77 115.85,926.76" fill="none" id="ICommand-to-NormaleAttackCommand" style="stroke:#E7E7E7;stroke-width:1;"/><polygon fill="#E7E7E7" points="115.85,932.76,119.85,923.76,115.85,927.76,111.85,923.76,115.85,932.76" style="stroke:#E7E7E7;stroke-width:1;"/></g><!--link CommandHistory to Combos--><g class="link" data-entity-1="CommandHistory" data-entity-2="Combos" data-source-line="134" data-uid="lnk25" id="link_CommandHistory_Combos"><path codeLine="134" d="M229.85,345.72 C229.85,381.77 229.85,413.15 229.85,441.88" fill="none" id="CommandHistory-to-Combos" style="stroke:#E7E7E7;stroke-width:1;stroke-dasharray:7.0,7.0;"/><polygon fill="#E7E7E7" points="229.85,453.88,233.85,447.88,229.85,441.88,225.85,447.88,229.85,453.88" style="stroke:#E7E7E7;stroke-width:1;"/></g><!--link BaseState to StateMachine--><g class="link" data-entity-1="BaseState" data-entity-2="StateMachine" data-source-line="135" data-uid="lnk26" id="link_BaseState_StateMachine"><path codeLine="135" d="M1609.48,139.94 C1584.5,158.72 1566.459,172.2753 1540.329,191.9353" fill="none" id="BaseState-to-StateMachine" style="stroke:#E7E7E7;stroke-width:1;stroke-dasharray:7.0,7.0;"/><polygon fill="#E7E7E7" points="1530.74,199.15,1537.9394,198.739,1540.329,191.9353,1533.1296,192.3463,1530.74,199.15" style="stroke:#E7E7E7;stroke-width:1;"/></g><!--link GameManager to CommandHistory--><g class="link" data-entity-1="GameManager" data-entity-2="CommandHistory" data-source-line="136" data-uid="lnk27" id="link_GameManager_CommandHistory"><path codeLine="136" d="M611.41,114.87 C539.11,136.63 450.45,166.06 373.85,199.48 C362.84,204.29 362.28,204.2574 351.12,209.8974" fill="none" id="GameManager-to-CommandHistory" style="stroke:#E7E7E7;stroke-width:1;stroke-dasharray:7.0,7.0;"/><polygon fill="#E7E7E7" points="340.41,215.31,347.5692,216.1737,351.12,209.8974,343.9608,209.0337,340.41,215.31" style="stroke:#E7E7E7;stroke-width:1;"/></g><!--link GameManager to CoolDownManager--><g class="link" data-entity-1="GameManager" data-entity-2="CoolDownManager" data-source-line="137" data-uid="lnk28" id="link_GameManager_CoolDownManager"><path codeLine="137" d="M681.34,139.94 C654.57,163.97 633.0998,183.2439 606.3198,207.2839" fill="none" id="GameManager-to-CoolDownManager" style="stroke:#E7E7E7;stroke-width:1;stroke-dasharray:7.0,7.0;"/><polygon fill="#E7E7E7" points="597.39,215.3,604.527,214.2685,606.3198,207.2839,599.1829,208.3153,597.39,215.3" style="stroke:#E7E7E7;stroke-width:1;"/></g><!--link Combos to Combo--><g class="link" data-entity-1="Combos" data-entity-2="Combo" data-source-line="138" data-uid="lnk29" id="link_Combos_Combo"><path codeLine="138" d="M229.85,518.54 C229.85,543.93 229.85,568.39 229.85,598.78" fill="none" id="Combos-to-Combo" style="stroke:#E7E7E7;stroke-width:1;stroke-dasharray:7.0,7.0;"/><polygon fill="#E7E7E7" points="229.85,610.78,233.85,604.78,229.85,598.78,225.85,604.78,229.85,610.78" style="stroke:#E7E7E7;stroke-width:1;"/></g><!--link Combo to ICommand--><g class="link" data-entity-1="Combo" data-entity-2="ICommand" data-source-line="139" data-uid="lnk30" id="link_Combo_ICommand"><path codeLine="139" d="M188.69,724.56 C174.15,744.31 165.2351,756.4369 151.9151,774.5269" fill="none" id="Combo-to-ICommand" style="stroke:#E7E7E7;stroke-width:1;stroke-dasharray:7.0,7.0;"/><polygon fill="#E7E7E7" points="144.8,784.19,151.5786,781.7302,151.9151,774.5269,145.1365,776.9868,144.8,784.19" style="stroke:#E7E7E7;stroke-width:1;"/></g><!--link Combo to Attack--><g class="link" data-entity-1="Combo" data-entity-2="Attack" data-source-line="140" data-uid="lnk31" id="link_Combo_Attack"><path codeLine="140" d="M271.37,724.56 C286.04,744.31 295.057,756.465 308.487,774.555" fill="none" id="Combo-to-Attack" style="stroke:#E7E7E7;stroke-width:1;stroke-dasharray:7.0,7.0;"/><polygon fill="#E7E7E7" points="315.64,784.19,315.2752,776.9881,308.487,774.555,308.8518,781.7568,315.64,784.19" style="stroke:#E7E7E7;stroke-width:1;"/></g><!--link Attack to AttackType--><g class="link" data-entity-1="Attack" data-entity-2="AttackType" data-source-line="141" data-uid="lnk32" id="link_Attack_AttackType"><path codeLine="141" d="M344.85,865.24 C344.85,883.8 344.85,893.84 344.85,912.4" fill="none" id="Attack-to-AttackType" style="stroke:#E7E7E7;stroke-width:1;stroke-dasharray:7.0,7.0;"/><polygon fill="#E7E7E7" points="344.85,924.4,348.85,918.4,344.85,912.4,340.85,918.4,344.85,924.4" style="stroke:#E7E7E7;stroke-width:1;"/></g><!--link NormaleAttackCommand to AttackValues--><g class="link" data-entity-1="NormaleAttackCommand" data-entity-2="AttackValues" data-source-line="142" data-uid="lnk33" id="link_NormaleAttackCommand_AttackValues"><path codeLine="142" d="M115.85,997.6 C115.85,1017.22 115.85,1030.86 115.85,1052.97" fill="none" id="NormaleAttackCommand-to-AttackValues" style="stroke:#E7E7E7;stroke-width:1;stroke-dasharray:7.0,7.0;"/><polygon fill="#E7E7E7" points="115.85,1064.97,119.85,1058.97,115.85,1052.97,111.85,1058.97,115.85,1064.97" style="stroke:#E7E7E7;stroke-width:1;"/></g><!--link Transition to IState--><g class="link" data-entity-1="Transition" data-entity-2="IState" data-source-line="143" data-uid="lnk34" id="link_Transition_IState"><path codeLine="143" d="M1490.24,551.54 C1477.23,573.75 1468.9608,587.873 1456.8708,608.533" fill="none" id="Transition-to-IState" style="stroke:#E7E7E7;stroke-width:1;stroke-dasharray:7.0,7.0;"/><polygon fill="#E7E7E7" points="1450.81,618.89,1457.2927,615.7318,1456.8708,608.533,1450.3881,611.6913,1450.81,618.89" style="stroke:#E7E7E7;stroke-width:1;"/></g><!--link StateMachine to Transition--><g class="link" data-entity-1="StateMachine" data-entity-2="Transition" data-source-line="144" data-uid="lnk35" id="link_StateMachine_Transition"><path codeLine="144" d="M1464.8,361.77 C1474.87,381.48 1480.0429,391.6426 1489.6629,410.4826" fill="none" id="StateMachine-to-Transition" style="stroke:#E7E7E7;stroke-width:1;stroke-dasharray:7.0,7.0;"/><polygon fill="#E7E7E7" points="1495.12,421.17,1495.9539,414.0073,1489.6629,410.4826,1488.829,417.6454,1495.12,421.17" style="stroke:#E7E7E7;stroke-width:1;"/></g><!--link StateMachine to IState--><g class="link" data-entity-1="StateMachine" data-entity-2="IState" data-source-line="145" data-uid="lnk36" id="link_StateMachine_IState"><path codeLine="145" d="M1376.59,361.73 C1367.61,380.74 1359.55,401.37 1354.85,421.56 C1341.79,477.61 1339.73,495.52 1354.85,551.04 C1361.37,574.97 1367.7383,588.8975 1380.5383,608.7975" fill="none" id="StateMachine-to-IState" style="stroke:#E7E7E7;stroke-width:1;stroke-dasharray:7.0,7.0;"/><polygon fill="#E7E7E7" points="1387.03,618.89,1387.1483,611.6799,1380.5383,608.7975,1380.42,616.0076,1387.03,618.89" style="stroke:#E7E7E7;stroke-width:1;"/></g><!--link GameManager to InputManager--><g class="link" data-entity-1="GameManager" data-entity-2="InputManager" data-source-line="146" data-uid="lnk37" id="link_GameManager_InputManager"><path codeLine="146" d="M824.05,139.94 C844.88,158.72 859.0104,171.4514 880.8004,191.1114" fill="none" id="GameManager-to-InputManager" style="stroke:#E7E7E7;stroke-width:1;stroke-dasharray:7.0,7.0;"/><polygon fill="#E7E7E7" points="889.71,199.15,887.9348,192.1608,880.8004,191.1114,882.5757,198.1005,889.71,199.15" style="stroke:#E7E7E7;stroke-width:1;"/></g><!--SRC=[dLRRRjim37ttLmZOIxBQ_O440RgqQmsiAx1aUrTj9H5gIu4ajmsA_VieYTObCJPWVQZjG_Bm9bBXmZ2remqZzLhsFHLjyL5SlKhU4lREci6msNnHNDqOGvkNNxGRc2RtpFWt497YTr4q7TMQf3f0Kf5T9waXZPHTAz_40X2liZqT6Q7XrGgqKLpi2HMyfuPBuNcP6Fh41aY5L3tjoa8VMSDfnyhe7iD_uDf8TR810F8iDGG03uGN0TNC-3V8ZhXyQTiwPER-UxDvaFvWO84ihYIXO6HzOCtBLwcyDSX2JDzTkCod4EjRPRN2KlYFHPOGX6VLlu7RfVjS-R1qMdSdi6fOH45xMrDdvFsiq0MmLo7gEzzUWBWmfEttY_DM0cUzCTGmQ0-rcjFjIq9nse-qEN31N9vetmnACM4sdgOYBZOlWzYwphtf8DagAZItvq2lY8aVeHbFukUnfNWsFNJJjevbbeQSjg-Nh-nl6fitRfe3QkXC0_AZpr1TsXZoXMfFizok8CLFP9jb3TK86hEjPq0H45q4Zy2TdK9lau3lt0GCGk1nL1qCtl-RB-bPB7RQiPsIVMWNOaO6P7FIXlNNkq4qosSOS7ikHUjOR46HKufPu2b7ypAgkk9RSpz2wn7F0ro3mYqia4Sgw9ufyb4G-AlyTZ6yPoe5ndLpEoYtIPpCBpHmhymQvJEltgBQFD73Sg82wmpTWXVKSE7M-aa4edaCjHR7mM2ShfejRomxvUf4yC2NARYC8rM6XR9oC-6uld0eYTYxqVYdsJXc5vPJKqYImK5T70pZJsqvlQsZFxkAx7C-CkbqWl8Pgxp6-a35dcNnkLuZmGEmTLuyctIUdOjxs7EnrkaGPcEtACuFK9D_MuNqwXZp6gyCKgHj9Jpv01bcDemZc0HOGpBZfCRLojK5zYXVeHG975O8gQfLDCdXr2gNHCT9ZSZrzUTyGOT6Mfl9g-giC9O1RwNey8BstESPoOGyQqU15tHmvW7tNIU18OHNbNyaYFl1C9LKeeE_LU86z4vywR83PV5aKLx8wkbofmVd3m00]--></g></svg>